<?xml version="1.0" encoding="UTF-8"?>
<svg width="256px" height="264px" viewBox="0 0 256 264" version="1.1" xmlns="http://www.w3.org/2000/svg" xmlns:xlink="http://www.w3.org/1999/xlink">
    <title>Illustration/Couple  2</title>
    <defs>
        <linearGradient x1="99.7804613%" y1="0%" x2="0.619327154%" y2="99.5984484%" id="linearGradient-1">
            <stop stop-color="#2B2E4A" stop-opacity="0.997049825" offset="0%"></stop>
            <stop stop-color="#2B2E4A" offset="28.7259615%"></stop>
            <stop stop-color="#E84545" offset="100%"></stop>
        </linearGradient>
    </defs>
    <g id="Dating-App---High-Fidelity-Design" stroke="none" stroke-width="1" fill="none" fill-rule="evenodd">
        <g id="Onboarding---Start" transform="translate(-71.000000, -160.000000)">
            <g id="Illustration/Couple--2" transform="translate(71.200000, 160.000000)">
                <path d="M132.281867,10.7573642 C170.067406,-11.0011191 216.346968,1.18427797 238.151406,38.8519817 C245.048576,50.7670132 248.665493,63.9040867 249.434911,78.5055474 C250.396361,96.7512383 247.163146,116.46562 239.608628,144.83649 L239.378381,145.69887 C236.805316,155.310698 220.716411,210.440261 215.881362,228.552992 L211.456543,245.128947 C210.504983,248.693614 206.867882,250.830767 203.292053,249.952856 L203.145049,249.915051 L203.145049,249.915051 L186.539831,245.449065 C168.395124,240.569033 112.48198,226.901241 102.849551,224.317844 L101.127628,223.853587 C73.1959707,216.282395 54.6844358,209.260406 39.4777,199.407635 C27.1840424,191.44231 17.5856538,181.749617 10.6884837,169.834585 C-11.1159538,132.166881 1.44331543,86.0996398 39.2288539,64.3411565 C56.3637636,54.4741634 76.7747379,51.4028407 95.7741016,54.8638435 C102.265439,36.722888 115.13698,20.6301028 132.281867,10.7573642 Z" id="Blob" fill="url(#linearGradient-1)"></path>
                <path d="M55.2684013,80.55757 C56.04914,81.0264679 56.8193806,81.514629 57.6172917,81.9520635 C57.8447303,82.0767268 58.1526031,82.0540189 58.4235958,82.0989035 C58.3174961,81.8273139 58.2584308,81.523385 58.0980207,81.2891584 C56.5129542,78.9747249 54.9203971,76.6652582 53.302733,74.3736761 C53.0893448,74.0713979 52.7571955,73.4829176 52.4396409,74.3888051 C52.105988,75.3405675 51.6574699,76.2513928 51.2911191,77.1926194 C51.2256803,77.3607751 51.2388281,77.6966702 51.3460739,77.774382 C52.599965,78.6829538 53.8788203,79.5568895 55.2684013,80.55757 Z" id="Path" fill="#FFFFFF"></path>
                <path d="M109.842766,250.14978 L88.3119518,207.562991 C81.7592753,210.86989 76.5751361,212.953278 72.7595341,213.813156 C68.9439322,214.673034 64.1652861,214.673034 58.4235958,213.813156 C51.8826409,197.649112 51.6879027,182.582397 57.8393811,168.613012 C63.9908595,154.643626 76.9692246,140.680017 96.7744764,126.722185 C101.275303,132.602064 107.07143,135.200569 114.162858,134.517698 C121.254286,133.834827 127.52189,127.857918 132.96567,116.586969 L156.552524,121.233826 C178.7907,164.325141 186.432476,195.467957 179.477853,214.662273 C172.523229,233.85659 149.311534,245.685759 109.842766,250.14978 Z" id="Path-186" fill="#FFFFFF"></path>
                <path d="M98.757264,127.506294 C100.054043,122.672242 100.605411,119.354244 100.411368,117.552299 C100.019739,113.915505 96.6025133,109.335839 99.2611213,106.532515 C101.505372,104.166102 107.453509,108.416885 111.723556,106.987594 C114.755474,105.972736 119.55535,102.407396 126.123183,96.2915737 C127.440643,103.777693 128.35927,108.680765 128.879064,111.000789 C129.633569,114.368413 131.136494,116.703124 130.833445,118.563126 C129.844025,124.635808 124.820742,129.770904 119.56817,132.457799 C109.408612,137.654808 102.471643,136.004306 98.757264,127.506294 Z" id="Path-2" fill="#FFFFFF"></path>
                <path d="M37.4344663,60.3326141 C37.2780378,61.0503797 37.1055968,61.7650734 36.9678446,62.4864275 C36.2607082,66.1896127 35.0886261,69.7487426 33.5144446,73.161721 C32.9199678,74.4506274 32.0322269,75.6019516 31.3110976,76.8353371 C31.1628185,77.0889559 31.1612574,77.4287408 31.0920662,77.7288086 C31.3638323,77.617681 31.715732,77.5803321 31.895334,77.3843586 C34.6357829,74.3941304 38.0440818,72.1328639 40.5497588,68.8369842 C44.073639,64.2017876 46.5698922,59.0923961 48.7049934,53.743898 C49.2684052,52.3324957 49.8743399,50.9335094 50.559649,49.5790777 C50.7183119,49.265503 51.2825687,49.1580355 51.6601912,48.9557175 C51.7678664,49.3420951 51.9596997,49.7261475 51.9704843,50.1152237 C52.116429,55.3801106 51.8857964,60.6292371 51.025626,65.8288282 C50.6173681,68.2967043 50.063366,70.7448009 49.4709516,73.1762901 C48.9799103,75.1917036 48.3303355,77.168103 47.769516,79.1670095 C47.724329,79.3280744 47.8229385,79.5296601 47.8547054,79.7124137 C47.988218,79.5933196 48.1760697,79.4999191 48.2462349,79.3508684 C48.6469735,78.499382 49.043917,77.6445225 49.3979221,76.7727543 C51.2635772,72.1782652 53.1542965,67.5933787 54.9568619,62.9739856 C55.85248,60.6787722 56.6261722,58.3320856 57.3663359,55.9806481 C58.0663685,53.7567016 58.5950628,51.4783253 59.3047485,49.2577949 C59.7804075,47.769499 62.1394382,47.1029766 62.8601237,48.2584636 C63.4981405,49.2814501 64.1309582,50.5503471 64.1026717,51.6942074 C64.0537321,53.673808 63.4851787,55.6395857 63.1512106,57.6139899 C63.0987335,57.9242776 63.1337516,58.2494218 63.1283092,58.5677045 C63.3447625,58.3515065 63.6123037,58.1670305 63.7688896,57.9136844 C64.4801079,56.7630491 65.2086417,55.6188443 65.8412304,54.4246018 C67.2009065,51.8577125 68.5161975,49.2669382 69.8274354,46.674657 C70.3996696,45.5433562 70.9016102,44.3765011 71.4649645,43.2404778 C71.8754139,42.4128046 72.5972164,42.4230533 73.3239886,42.6961071 C73.9575225,42.9341231 74.5323492,43.3379837 74.2315229,44.1350974 C73.2088943,46.8447074 72.2168153,49.5703217 71.0611178,52.22332 C70.4091941,53.7198696 69.4495979,55.0806458 68.6537206,56.5165645 C68.52386,56.7508339 68.5245046,57.0577629 68.4648233,57.3311039 C68.6583752,57.1783497 68.8849688,57.0534425 69.0402085,56.8684065 C70.1835887,55.5053339 71.3062016,54.1247779 72.4480491,52.7603991 C73.7401095,51.2165537 75.1543391,49.7621326 76.3222821,48.1299966 C78.7745801,44.7030659 81.0879512,41.176534 83.4946039,37.7162164 C83.7843159,37.2996597 84.2542171,36.9071243 84.722758,36.7508393 C85.0727527,36.6340992 85.5696944,36.8800241 85.9698461,37.042144 C86.091987,37.0916075 86.2116069,37.434091 86.16029,37.5827254 C85.6047125,39.1922685 85.1635706,40.8657439 84.3989015,42.3728004 C83.2929884,44.5524507 81.9402875,46.605902 80.7109303,48.7237159 C80.591969,48.9286749 80.6001041,49.2077141 80.5492455,49.4523618 C80.7704539,49.350564 81.0392554,49.2970671 81.2019999,49.1359593 C81.4636404,48.8769435 81.6447891,48.5384073 81.8780283,48.2480572 C84.6305077,44.821873 86.905094,41.1436204 88.3983116,36.9611809 C89.1472118,34.8634911 89.141626,34.6686733 91.3241486,34.8484052 C92.7059381,34.9622027 94.097238,35.2786483 95.4205638,35.7034657 C96.929192,36.1877511 98.3584172,36.9161816 99.8429838,37.4838629 C100.137451,37.5964835 100.526102,37.4617653 100.871356,37.44111 C100.84486,37.1423483 100.829334,36.8421155 100.789461,36.5451625 C100.71994,36.0278129 100.61639,35.5145327 100.56079,34.9959128 C100.399607,33.4921504 100.232379,31.9881585 100.12797,30.4800543 C100.111843,30.2473206 100.369988,29.9306093 100.587946,29.7736281 C100.698399,29.6940791 101.041792,29.8332614 101.210193,29.9638387 C101.516978,30.2017469 101.726227,30.6629872 102.055469,30.7595458 C104.893095,31.5917618 106.718905,33.68188 108.507048,35.8362964 C108.641678,35.9985168 108.85107,36.0984196 109.025717,36.2272888 C109.048231,35.982469 109.13554,35.7227356 109.08335,35.4951263 C108.513235,33.0086258 107.522073,30.7210558 105.961827,28.6780039 C103.99116,26.0975359 102.207686,23.3599216 100.089041,20.911215 C98.6596159,19.2591054 96.838904,17.9269077 95.1020066,16.5687798 C93.8254573,15.5706042 92.5056262,14.5615985 90.6432077,15.0432427 C88.8244438,15.5135905 88.4068334,16.3625864 89.4092817,17.8842338 C89.5296467,18.0669728 89.7058112,18.2547863 89.724459,18.4527263 C89.7503538,18.7272224 89.6516155,19.0135177 89.6062139,19.2947676 C89.3456047,19.1735634 88.9320618,19.1182364 88.8475027,18.9211722 C87.7423919,16.345125 85.4238933,15.1758655 83.1062254,14.1620369 C80.6259701,13.0770776 78.0293464,12.2366006 75.4399982,11.4296473 C70.4774542,9.8830818 65.4034829,8.81801704 60.1828506,9.23765266 C58.1347431,9.40228427 56.0383697,9.9514779 54.136751,10.7426492 C50.7474291,12.1527597 48.0380312,14.5519743 45.5925222,17.3055214 C43.1221925,20.087037 41.5119616,23.3490343 40.3122373,26.760319 C39.0434509,30.3679288 38.5815987,34.1938901 38.6054312,38.04848 C38.6184502,40.1522987 38.6641097,42.2581272 38.594675,44.3597355 C38.4880025,47.5883386 38.3433467,50.8174297 38.1207921,54.039803 C37.9808917,56.065178 37.6691233,58.0786392 37.4344663,60.3326141" id="Path" fill="#FFFFFF"></path>
                <path d="M69.5824807,93.7273087 C67.3302657,91.5485339 65.086143,89.361247 62.8197059,87.1974291 C62.3051905,86.7062108 61.7696501,86.0391 61.1455403,85.90192 C59.7975084,85.6056416 58.6285915,86.6494555 57.9647944,88.2095927 C57.5881889,89.0947675 58.089413,90.5958957 59.0714523,91.1574769 C60.2279658,91.8188174 61.4191828,92.5244252 62.6877542,92.8599758 C64.7842999,93.4145951 66.9541614,93.6923282 69.0964522,94.0675672 C69.2031393,94.0862704 69.3415217,93.9232821 69.5824807,93.7273087" id="Path" fill="#FFFFFF"></path>
                <path d="M116.748546,46.4573537 C117.436476,47.6955335 118.11206,48.9409188 118.822619,50.1659072 C118.967275,50.4152341 119.243724,50.5877819 119.459419,50.7957123 C119.494423,50.4976684 119.610806,50.1822706 119.551712,49.9043077 C119.026054,47.4310489 118.555852,44.9405222 117.886426,42.505588 C117.535443,41.2288538 117.285003,39.8001408 115.674428,39.222957 C114.462788,38.7887381 113.748877,39.4255476 113.031214,40.0982564 C112.326097,40.7591807 113.071259,41.2120024 113.409352,41.6993307 C114.482725,43.2465352 115.557186,44.7930075 116.748546,46.4573537" id="Path" fill="#FFFFFF"></path>
                <path d="M102.199809,197.08624 C101.97936,196.17052 101.470516,195.323067 101.596266,194.584101 C101.891507,192.849349 103.428436,192.853167 104.981549,193.671884 C105.538602,193.965564 105.960595,194.507308 106.479063,194.888231 C106.696906,195.048277 107.00495,195.084965 107.272033,195.17772 C107.22159,194.910078 107.26387,194.552121 107.105894,194.38929 C105.96578,193.213995 105.450949,191.737871 105.352039,190.190437 C105.304804,189.451586 105.6832,188.521311 106.182076,187.954792 C106.752591,187.306916 108.134066,187.649026 108.984497,188.493464 C112.11891,191.605844 115.223475,194.748424 118.359578,197.859053 C118.719699,198.216263 119.182539,198.494441 119.640797,198.722266 C120.66175,199.229905 121.24484,198.980751 121.676344,197.923617 C122.462238,195.998102 124.964607,194.106088 126.799526,194.294325 C128.884227,194.508198 129.884184,195.671809 128.819404,197.770863 C128.28859,198.817232 127.499459,199.729736 126.854581,200.720699 C125.215649,203.239058 125.651477,205.120994 128.054306,206.983008 C132.537596,210.45722 137.942843,211.810503 143.083069,213.784764 C145.351927,214.656159 147.669996,215.255635 150.126332,215.198564 C151.967926,215.155789 153.872137,215.435719 155.63682,215.053848 C157.84475,214.576065 159.413217,212.817945 160.771289,211.106561 C162.279058,209.206538 163.812464,207.217809 164.779708,205.022154 C166.163417,201.881066 167.167212,198.552144 168.100884,195.23769 C168.907546,192.373978 169.470242,189.432725 169.98871,186.498792 C170.361893,184.386792 170.45685,182.226763 170.727485,180.094753 C171.005109,177.907711 171.316763,175.723682 171.694271,173.552429 C171.741849,173.278844 172.280111,173.090952 172.59102,172.863328 C172.665153,173.077775 181.180169,176.01052 198.136069,181.661565 C200.072241,181.661565 200.549567,182.609361 199.568044,184.504953 C197.262297,188.957987 195.268967,193.457666 193.204518,197.973023 C191.27785,202.186947 189.568566,206.502182 187.590194,210.690557 C185.257402,215.629209 182.212159,220.149531 178.909975,224.486526 C177.512946,226.321354 176.137687,228.212965 174.491192,229.807767 C171.797363,232.417072 168.872342,234.792667 165.180848,235.902824 C162.226438,236.791301 159.212647,236.800401 156.17597,236.371478 C155.12325,236.222772 154.043604,236.263996 152.991686,236.111673 C151.158944,235.84627 149.32285,235.568006 147.515544,235.170116 C143.528666,234.292434 139.670545,233.012269 136.128118,230.943531 C134.601586,230.052041 133.089063,229.082867 131.747204,227.940155 C129.86018,226.333153 128.074472,224.592573 126.362466,222.797018 C124.516576,220.861053 122.867331,218.735761 121.007147,216.814839 C120.201831,215.983204 119.125651,215.379365 118.097738,214.806933 C115.623498,213.42919 113.020243,212.266325 110.629932,210.760288 C108.518219,209.429741 106.62369,207.752864 104.635063,206.22653 C104.542742,206.155679 104.466661,206.063097 104.385225,205.978466 C103.779247,205.348848 102.955971,204.608073 103.52388,203.780055 C103.772258,203.417907 104.938496,203.68687 105.687955,203.671741 C105.97423,203.665942 106.260648,203.66709 106.54698,203.665081 C106.399975,203.443371 106.254317,203.220714 106.105709,203.000095 C104.804038,201.067776 103.501852,199.135859 102.199809,197.08624 Z" id="Path" fill="#FFFFFF" fill-rule="nonzero"></path>
                <path d="M207.34968,73.9900833 C207.936409,79.9505588 209.570988,85.5664268 213.0516,90.549303 C214.419697,92.5078177 215.496851,94.6869946 216.986602,96.539434 C218.841058,98.8453697 220.971991,100.929797 223.008053,103.086639 C224.976801,105.172243 226.996306,107.20989 228.956145,109.303733 C230.264318,110.701327 231.525256,112.144695 232.77508,113.595513 C235.084068,116.275741 237.444818,118.916122 239.646561,121.682975 C242.832878,125.687204 245.343038,130.142791 246.983088,134.969181 C248.297334,138.836747 249.070338,142.892277 250.02389,146.87875 C250.820785,150.210442 250.783604,153.724214 252.151988,156.931789 C252.961801,158.830089 253.882412,160.682054 254.652208,162.595685 C254.915911,163.251255 255.638959,164.056737 254.701506,164.735245 C254.408356,164.947424 253.822544,165.0659 253.533978,164.914582 C252.593975,164.421555 251.606135,163.910614 250.85808,163.17917 C248.179719,160.560334 245.342265,158.066979 243.4616,154.74077 C243.388871,154.612087 243.311272,154.470903 243.198842,154.383574 C243.028836,154.251547 242.826118,154.161849 242.637292,154.054167 C242.67284,154.243408 242.662156,154.458515 242.750897,154.618016 C244.151277,157.134351 245.483168,159.69425 247.001363,162.13771 C248.138126,163.967255 249.522179,165.642122 250.786554,167.392807 C250.955558,167.626833 251.128772,167.886724 251.19603,168.160338 C251.422323,169.080651 251.004712,169.512358 250.177913,169.070316 C248.949401,168.41354 247.736843,167.662201 246.679713,166.760146 C243.366213,163.932691 240.118195,161.027638 236.871237,158.123002 C236.278952,157.593129 235.824332,156.911076 235.275214,156.32861 C235.151698,156.197588 234.898394,156.189449 234.704842,156.124771 C234.73025,156.305529 234.699227,156.523105 234.7892,156.661735 C237.496235,160.831392 240.212665,164.994935 242.933335,169.155722 C244.748031,171.930957 246.57748,174.696547 248.379028,177.480281 C248.511882,177.68557 248.471923,178.003135 248.512283,178.268538 C248.225636,178.269801 247.876687,178.378747 247.662797,178.254357 C246.522597,177.591495 245.314107,176.990986 244.318333,176.145284 C241.892273,174.084843 239.581394,171.888728 237.202685,169.77156 C235.466074,168.225935 233.549202,166.855283 231.975092,165.16167 C229.79383,162.814868 227.348808,160.654983 225.860775,157.724324 C225.810418,157.625181 225.726374,157.524403 225.631876,157.470461 C225.425376,157.352572 225.202005,157.264368 224.985537,157.164034 C225.043743,157.3584 225.087484,157.558551 225.162304,157.746256 C226.194485,160.335581 227.40856,162.86858 228.22161,165.524995 C229.248808,168.881074 230.072886,172.313029 230.751822,175.758333 C231.266709,178.371168 231.477419,181.050693 231.713595,183.710351 C231.947364,186.342852 232.044355,188.987554 232.199551,191.62703 C232.354777,194.26734 232.513325,196.907477 232.650447,199.548762 C232.660702,199.745927 232.453744,199.949035 232.444807,200.153635 C232.415016,200.835042 235.755871,201.822993 216.986602,214.662273 C210.108463,219.367324 182.139521,223.413089 169.099957,214.662273 C146.556774,199.533607 137.185592,168.32465 137.929351,163.254958 C138.67311,158.185266 139.077658,156.070269 140.691842,152.784638 C142.150972,149.814634 143.803654,146.939208 145.399334,144.037759 C147.646421,139.951813 149.897261,135.867648 152.188232,131.806348 C154.375796,127.92839 156.695698,124.123148 158.797214,120.199746 C159.69551,118.522668 160.444711,116.676128 160.798301,114.818047 C161.230807,112.544982 161.379215,110.170047 161.277641,107.855585 C161.171799,105.444722 160.638177,103.050812 160.25749,100.654949 C160.119308,99.7853621 159.891755,98.9293256 159.687948,98.0711647 C159.518515,97.3578058 159.325135,97.042365 158.366083,97.3208878 C156.18316,97.9548409 153.934067,98.3994235 151.685605,98.7533614 C150.178609,98.9905879 148.616501,99.0864432 147.097303,98.9811001 C145.26986,98.8543841 143.470546,98.6367074 141.689134,97.9053057 C139.135062,96.8566404 137.995062,94.8312797 137.185592,92.5006696 C136.231926,89.7549453 135.450929,86.9492505 134.578499,84.1747899 C134.232157,83.0733021 133.747145,82.1174056 132.687894,81.4303862 C131.404929,80.5982776 131.186055,79.2282718 132.104202,77.9526286 C132.623988,77.2305137 132.292082,76.9999906 131.883209,76.6942673 C130.675034,75.790863 130.6504,74.6226585 132.009933,73.8831899 C133.231111,73.2189642 133.98418,70.7446288 133.608161,69.8846018 C133.36239,69.3225186 132.820605,68.8533908 132.324651,68.4497024 C131.911509,68.113434 131.362878,67.9492974 130.890098,67.6809087 C128.726281,66.45259 128.431699,64.0566124 129.588857,61.6019704 C130.085871,60.5476209 130.720465,59.5409835 131.410514,58.599484 C132.490218,57.1263888 132.951311,55.4087896 132.885342,53.7053721 C132.762571,50.5356488 132.247282,47.3831788 132.031273,44.2142161 C131.932821,42.7694553 132.162895,41.302805 132.234077,39.8455995 C132.279822,38.9080474 132.182574,38.1220866 131.164543,37.588711 C127.76637,35.8083349 125.327506,33.1069429 124.188136,29.4162383 C123.472879,27.0993504 123.715184,24.7145614 124.13374,22.3224164 C124.660515,19.3119205 126.553154,17.1392245 128.32494,14.8885726 C130.598123,12.0010178 133.361874,9.64778584 136.445959,7.64729336 C138.851022,6.08724233 141.49077,5.20700521 144.272281,4.72651647 C147.314258,4.20104248 150.362078,3.67070275 153.428575,3.3407286 C155.322989,3.13686763 157.265383,3.41927292 159.171714,3.28147583 C165.274115,2.84036695 171.01883,4.43156582 176.760422,6.16414325 C179.843876,7.09459023 182.857953,8.18641049 185.432678,10.1458223 C188.047993,12.1361092 190.697251,14.1362141 193.013344,16.4517886 C195.449171,18.8870889 197.294746,21.83643 198.972006,24.8820784 C201.670504,29.7821831 203.258536,35.0722324 204.460637,40.4690314 C205.198323,43.7807289 205.540197,47.1918559 205.892555,50.5758252 C206.244311,53.9543401 206.382608,57.3550173 206.623996,60.7452881 C206.770543,62.8033467 206.935077,64.860128 207.091506,67.0350704 C207.169735,69.4325696 207.126682,71.7244818 207.34968,73.9900833 Z" id="Path" fill="#FFFFFF"></path>
                <path d="M154.647491,130.53458 C153.211462,133.264618 149.336284,149.605854 150.819945,165.487073 C152.69041,185.508669 160.291439,205.665928 160.843932,206.598784 C160.985465,206.837718 160.856392,207.237588 160.852554,207.562991 C160.580773,207.43972 160.220223,207.388964 160.051506,207.181465 C158.890567,205.753886 157.79001,204.276987 156.630388,202.848259 C155.4109,201.345753 154.09969,199.91625 152.914489,198.387907 C151.291969,196.2956 149.652865,194.204786 148.197544,191.996413 C146.079616,188.782638 144.013247,185.524767 142.120322,182.174773 C140.093341,178.587567 138.796196,174.697409 138.355927,170.578822 C138.09592,168.146558 137.761121,165.675682 137.929351,163.254958 C138.181539,159.626557 139.077658,156.070269 140.691842,152.784638 C142.150972,149.814634 143.803654,146.939208 145.399334,144.037759 C147.646421,139.951813 149.897261,135.867648 152.188232,131.806348 C154.375796,127.92839 155.528314,128.860042 154.647491,130.53458 Z" id="Path" fill="#E7EAEE"></path>
                <path d="M172.529377,121.38961 C176.086575,121.50192 179.017898,121.032175 181.323344,119.980376 C183.628791,118.928576 185.764188,117.086763 187.729535,114.454936 C181.916428,107.54288 177.726301,102.013452 175.159156,97.8666507 C172.59201,93.7198495 171.497171,90.7122862 171.874639,88.8439609 C171.010014,94.8952606 171.010014,98.798305 171.874639,100.553094 C174.156089,105.18338 180.294408,105.973791 180.351581,108.815727 C180.441255,113.273221 177.833853,117.464515 172.529377,121.38961 Z" id="Path-3" fill="#E7EAEE"></path>
                <path d="M142.6,66.1178132 C145.582338,65.5694623 148,64.325438 148,63.339207 C148,62.3529761 145.582338,61.5411383 142.6,61.5259167 C139.617662,61.510695 137.2,62.7547193 137.2,64.3045228 C137.2,65.8543262 139.617662,66.666164 142.6,66.1178132 Z" id="Oval" fill="#FFB61D"></path>
                <path d="M78.9687477,47.398035 C78.2780678,48.3254101 77.6498332,49.3085358 76.8846056,50.1693522 C74.8583826,52.4486902 72.8458806,54.7487267 70.6867751,56.8981478 C69.1033413,58.4744905 67.3038409,59.8342331 65.5827841,61.2690035 C65.2805829,61.520914 64.8901992,61.6665341 64.5405194,61.8612445 C64.5986968,61.4099157 64.5176324,60.8696212 64.7385685,60.522272 C65.8486207,58.7770128 67.1622219,57.1522689 68.1692821,55.3530536 C69.6389106,52.7273278 70.9138271,49.9917661 72.2511744,47.2927923 C72.3479935,47.0974074 72.2776564,46.8188416 72.2850324,46.5789454 C72.1238777,46.7377854 71.9238091,46.8722524 71.8073971,47.0590969 C70.1399486,49.7353484 68.4263393,52.3850451 66.838838,55.1084635 C64.637811,58.8844372 61.9678853,62.2916311 59.019276,65.4934354 C58.8699799,65.6555337 58.5949912,65.7013656 58.3785236,65.801326 C58.3205899,65.5060094 58.1363043,65.161014 58.2287549,64.9248211 C58.492157,64.2518681 58.8743769,63.6263119 59.1990069,62.9766698 C60.9413037,59.4901278 62.844412,56.0389536 62.0557958,51.9060706 C61.9664389,51.4378184 61.634032,51.0161591 61.4143275,50.572897 C61.2602763,50.9082896 61.0853149,51.2357591 60.9553254,51.5802807 C59.485124,55.4768987 57.9900447,59.3645313 56.5682527,63.2788907 C55.6766736,65.7335183 54.8683068,68.2201409 54.0961901,70.7152608 C53.9577075,71.1627285 54.0089099,71.8362983 54.2609686,72.2101164 C55.6112491,74.2125538 57.0322676,76.1684418 58.4692125,78.110435 C59.7391592,79.8267424 60.953263,81.6034222 62.3874007,83.1743103 C64.4661007,85.4512226 66.6255211,87.6743079 68.9262172,89.7220461 C71.3971913,91.9213615 73.99234,94.0014389 76.6750841,95.9360545 C80.8545402,98.9499522 85.2547321,101.585984 90.0738952,103.520183 C93.9951769,105.094014 98.0016481,106.256491 102.199666,106.493014 C104.5041,106.622845 106.870091,106.422795 109.152097,106.037164 C115.466325,104.97014 120.061873,101.376446 123.064435,95.787707 C125.482416,91.2870062 125.99106,86.3218138 126.120591,81.3103304 C126.142962,80.4440595 126.016611,79.5674253 125.892952,78.7051018 C125.533003,76.1951542 125.208344,73.677183 124.743642,71.1859961 C123.992837,67.1612266 122.780624,63.2683836 120.963435,59.5919685 C119.226194,56.0773215 117.59425,52.4925414 115.597173,49.1286962 C111.964687,43.0102559 107.168426,37.7893277 102.278439,32.6671472 C102.137564,32.5195678 101.949827,32.4169447 101.783917,32.2933651 C101.6879,32.5278285 101.466649,32.7936766 101.516032,32.9916811 C101.85129,34.3353474 102.157902,35.6975518 102.649645,36.9863721 C102.944685,37.7596655 103.651492,38.3701071 103.984744,39.1361017 C104.133209,39.4773221 103.911098,40.3493345 103.694172,40.4118025 C103.058232,40.5949148 102.270848,40.686995 101.66636,40.4695768 C98.4697303,39.3197883 95.3188466,38.0429176 92.1356232,36.854503 C90.7106373,36.3225124 90.1095577,36.7525187 89.5047545,38.1364404 C88.6486658,40.0954431 87.7832391,42.0808712 86.6414486,43.8758951 C85.3205147,45.9525423 83.8086639,47.937066 82.1645035,49.7674005 C80.9666412,51.10089 79.4384342,52.1435125 78.0107416,53.2554641 C77.7705274,53.4425527 77.2925055,53.3229562 76.9243642,53.3450612 C76.9899319,52.9990752 76.9736903,52.6063388 77.1383398,52.3169648 C77.4671949,51.7389772 77.9109722,51.2281228 78.2797292,50.6712211 C80.3602337,47.5291145 82.5381873,44.4428303 83.9941953,40.9345993 C84.1252017,40.6189719 84.0989917,40.2378049 84.1457542,39.8870536 C83.896918,40.1267346 83.5929409,40.3300573 83.4079823,40.6118525 C81.9544951,42.8262538 80.5238092,45.055669 78.9687477,47.398035" id="Path" fill="#FFFFFF"></path>
                <path d="M116.301302,69.5756532 C118.291573,69.3806705 119.546157,67.9055622 119.103495,66.2809064 C118.660832,64.6562507 116.913483,63.1811424 115.200681,62.9861597 C113.487879,62.791177 112.233295,64.2662854 112.398489,66.2809064 C112.563682,68.2955275 114.311032,69.7706359 116.301302,69.5756532 Z" id="Oval" fill="#FFB61D"></path>
                <path d="M83.5013023,93.6285166 C85.491573,93.433534 86.7461573,91.9584256 86.3034947,90.3337699 C85.8608322,88.7091142 84.1134829,87.2340058 82.4006809,87.0390231 C80.687879,86.8440404 79.4332947,88.3191488 79.5984885,90.3337699 C79.7636824,92.3483909 81.5110316,93.8234993 83.5013023,93.6285166 Z" id="Oval" fill="#FFB61D"></path>
                <path d="M54.0208988,69.6225759 C53.6126408,72.0904521 54.863366,74.7536115 54.2709516,77.1851006 C53.7799103,79.2005142 53.1303355,81.1769136 52.569516,83.17582 C52.524329,83.336885 52.6229385,83.5384707 52.6547054,83.7212243 C52.788218,83.6021301 52.9760697,83.5087296 53.0462349,83.359679 C53.4469735,82.5081926 53.843917,81.6533331 54.1979221,80.7815648 C56.0635772,76.1870757 57.9542965,71.6021892 59.7568619,66.9827961 C60.65248,64.6875828 61.4261722,62.3408962 62.1663359,59.9894586 C62.8663685,57.7655122 68.2851787,59.6483963 67.9512106,61.6228004 C67.8987335,61.9330882 67.9337516,62.2582323 67.9283092,62.5765151 C68.1447625,62.3603171 68.4123037,62.175841 68.5688896,61.922495 C69.2801079,60.7718597 70.0086417,59.6276549 70.6412304,58.4334124 C72.0009065,55.8665231 77.0168153,53.5791323 75.8611178,56.2321305 C75.2091941,57.7286802 74.2495979,59.0894563 73.4537206,60.5253751 C73.32386,60.7596445 73.3245046,61.0665735 73.2648233,61.3399145 C73.4583752,61.1871603 73.6849688,61.0622531 73.8402085,60.8772171 C74.9835887,59.5141444 76.1062016,58.1335885 77.2480491,56.7692097 C78.5401095,55.2253642 79.9543391,53.7709432 81.1222821,52.1388071 C83.5745801,48.7118765 89.9635706,44.8745545 89.1989015,46.3816109 C88.0929884,48.5612613 85.8392554,53.3058776 86.0019999,53.1447699 C86.2636404,52.885754 86.4447891,52.5472179 86.6780283,52.2568677 C89.4305077,48.8306835 91.705094,45.152431 93.1983116,40.9699915 C93.9472118,38.8723017 93.941626,38.6774838 96.1241486,38.8572157 C97.5059381,38.9710133 98.897238,39.2874589 100.220564,39.7122763 C101.729192,40.1965617 103.158417,40.9249922 104.642984,41.4926735 C104.937451,41.6052941 105.326102,41.4705759 105.671356,41.4499205 C105.64486,41.1511589 105.629334,40.850926 105.589461,40.5539731 C105.51994,40.0366234 105.41639,39.5233432 105.36079,39.0047234 C105.199607,37.500961 105.032379,35.9969691 104.92797,34.4888649 C104.911843,34.2561312 105.169988,33.9394199 105.387946,33.7824387 C105.498399,33.7028897 105.841792,33.842072 106.010193,33.9726492 C106.316978,34.2105575 106.526227,34.6717977 106.855469,34.7683564 C109.693095,35.6005724 110.659965,36.8114083 109.099719,34.7683564 C108.559606,34.0611104 109.096867,25.1086959 103.35966,26.2534612 C102.831608,26.3588253 107.3443,32.1251713 106.855469,32.2933651 C106.235055,32.5068328 100.073661,28.7848937 99.486207,29.08849 C98.3437614,29.6789055 101.426591,35.888564 100.220564,36.7508393 C98.8279264,37.7465356 92.584697,34.2259596 90.7501181,35.4532175 C89.7993862,36.089218 81.4915629,48.9473291 80.0444589,49.6479548 C78.8470259,50.2277006 85.5825257,36.2127217 84.722758,36.7508393 C82.9214665,37.8782445 68.5688896,58.4334124 67.9283092,58.4334124 C67.2877288,58.4334124 74.2243638,41.8726808 72.4322819,43.0085958 C69.9786432,44.5638401 65.2637395,57.6951691 63.1667242,58.5929995 C61.3518966,59.3700122 63.7109309,47.3015424 60.8671537,48.9711871 C58.3207125,50.4662592 54.1516843,68.8319988 54.0208988,69.6225759 Z" id="Path" fill="#E7EAEE"></path>
                <g id="Group" transform="translate(26.800000, 3.207048)" fill="#00160A">
                    <path d="M180.291506,63.8280219 C180.369735,66.2255211 180.326682,68.5174333 180.54968,70.7830348 C181.136409,76.7435103 182.770987,82.3593783 186.2516,87.3422545 C187.619697,89.3007692 188.696851,91.4799461 190.186602,93.3323855 C192.041058,95.6383212 194.171991,97.7227482 196.208053,99.8795902 C198.176801,101.965194 200.196306,104.002842 202.156145,106.096685 C203.464318,107.494279 204.725256,108.937647 205.97508,110.388465 C208.284068,113.068692 210.644818,115.709074 212.846561,118.475927 C216.032878,122.480156 218.543038,126.935742 220.183088,131.762133 C221.497334,135.629698 222.270338,139.685228 223.22389,143.671701 C224.020785,147.003394 223.983604,150.517166 225.351988,153.72474 C226.161801,155.62304 227.082412,157.475006 227.852208,159.388636 C228.115911,160.044206 228.838959,160.849688 227.901506,161.528196 C227.608356,161.740375 227.022544,161.858852 226.733978,161.707534 C225.793975,161.214506 224.806135,160.703566 224.05808,159.972121 C221.379719,157.353285 218.542265,154.859931 216.6616,151.533721 C216.588871,151.405039 216.511272,151.263854 216.398842,151.176525 C216.228836,151.044498 216.026118,150.954801 215.837292,150.847118 C215.87284,151.03636 215.862156,151.251467 215.950897,151.410967 C217.351277,153.927302 218.683168,156.487201 220.201363,158.930661 C221.338126,160.760206 222.722179,162.435074 223.986554,164.185759 C224.155558,164.419785 224.328772,164.679676 224.39603,164.953289 C224.622323,165.873602 224.204712,166.30531 223.377913,165.863268 C222.149401,165.206492 220.936843,164.455152 219.879713,163.553097 C216.566213,160.725642 213.318195,157.82059 210.071237,154.915954 C209.478952,154.38608 209.024332,153.704027 208.475214,153.121561 C208.351698,152.990539 208.098394,152.982401 207.904842,152.917722 C207.93025,153.098481 207.899227,153.316057 207.9892,153.454686 C210.696235,157.624344 213.412665,161.787886 216.133335,165.948673 C217.948031,168.723909 219.77748,171.489499 221.579028,174.273232 C221.711882,174.478521 221.671923,174.796087 221.712283,175.06149 C221.425636,175.062753 221.076687,175.171699 220.862797,175.047308 C219.722597,174.384446 218.514107,173.783937 217.518333,172.938236 C215.092273,170.877794 212.781394,168.68168 210.402685,166.564512 C208.666074,165.018887 206.749202,163.648235 205.175092,161.954621 C202.99383,159.60782 200.548808,157.447935 199.060775,154.517275 C199.010418,154.418133 198.926374,154.317354 198.831876,154.263412 C198.625376,154.145524 198.402005,154.057319 198.185537,153.956986 C198.243743,154.151352 198.287484,154.351502 198.362304,154.539208 C199.394485,157.128532 200.60856,159.661532 201.42161,162.317946 C202.448808,165.674026 203.272886,169.10598 203.951822,172.551284 C204.466709,175.16412 204.677419,177.843644 204.913595,180.503303 C205.147364,183.135803 205.244355,185.780505 205.399551,188.419982 C205.554777,191.060291 205.713325,193.700428 205.850447,196.341714 C205.860702,196.538879 205.653744,196.741986 205.644807,196.946586 C205.615016,197.627993 205.67918,198.570182 204.815229,198.52313 C203.812294,198.468499 204.000718,197.443833 203.99476,196.708599 C203.984276,195.415315 204.015986,194.121341 203.986883,192.828631 C203.924953,190.078027 203.942713,187.319729 203.730914,184.579861 C203.445871,180.893068 203.0606,177.208715 202.549665,173.546955 C202.272328,171.559259 201.685485,169.60983 201.166759,167.662268 C200.34079,164.561256 199.578384,161.434551 198.556887,158.397156 C197.693651,155.830253 196.490289,153.379013 195.458881,150.86773 C194.991314,149.72921 194.663677,148.525465 194.119657,147.427379 C192.52372,144.205924 190.988968,140.940877 189.164332,137.850631 C187.733216,135.426907 185.968161,133.189497 184.232381,130.962564 C183.166971,129.595688 181.962721,128.307872 180.668727,127.156247 C178.523529,125.247081 176.251979,123.480851 174.040611,121.64598 C171.70928,119.71158 169.385167,117.768395 167.060968,115.825369 C166.881738,115.675543 166.746879,115.467383 166.557252,115.335786 C165.213645,114.403445 165.191446,114.512319 164.077827,115.879066 C162.387821,117.953273 160.293725,119.588969 158.004071,120.98342 C155.19108,122.696612 152.147298,123.730249 148.918358,124.267529 C145.440782,124.846191 141.93628,125.14336 138.417943,124.947443 C136.47721,124.839373 134.483054,124.701705 132.789296,123.553208 C132.291366,123.215562 131.889281,122.721344 131.487425,122.260211 C131.108599,121.825533 130.828941,121.79839 130.542523,122.331679 C129.647235,123.998609 128.728314,125.652994 127.847491,127.327531 C124.601048,133.499354 121.233153,139.593981 117.526992,145.511538 C115.603561,148.582607 114.413003,152.040686 113.595484,155.636275 C112.966046,158.404649 112.869972,161.160392 112.966362,163.938757 C113.109728,168.072013 114.139074,172.012382 115.745524,175.828274 C117.781271,180.663894 120.856389,184.832661 123.931308,189.007084 C126.257254,192.164736 128.669908,195.259001 130.959704,198.442317 C132.092572,200.017282 133.053199,201.718934 134.043932,203.391735 C134.185465,203.63067 134.056392,204.03054 134.052554,204.355942 C133.780773,204.232671 133.420223,204.181916 133.251506,203.974416 C132.090567,202.546837 130.99001,201.069938 129.830388,199.641211 C128.6109,198.138704 127.29969,196.709202 126.114489,195.180858 C124.491969,193.088552 122.852865,190.997737 121.397544,188.789365 C119.279616,185.575589 117.213247,182.317719 115.320322,178.967725 C113.29334,175.380519 111.996196,171.49036 111.555927,167.371774 C111.29592,164.939509 110.961121,162.468633 111.129351,160.04791 C111.381539,156.419508 112.277658,152.863221 113.891842,149.577589 C115.350972,146.607586 117.003654,143.73216 118.599334,140.830711 C120.846421,136.744765 123.097261,132.660599 125.388232,128.599299 C127.575796,124.721341 129.895698,120.9161 131.997214,116.992698 C132.89551,115.315619 133.644711,113.469079 133.998301,111.610999 C134.430807,109.337933 134.579215,106.962998 134.477641,104.648536 C134.371799,102.237674 133.838177,99.8437631 133.45749,97.4479002 C133.319308,96.5783136 133.091755,95.7222771 132.887948,94.8641162 C132.718515,94.1507573 132.525135,93.8353165 131.566083,94.1138393 C129.38316,94.7477924 127.134067,95.192375 124.885605,95.5463129 C123.378609,95.7835394 121.816501,95.8793947 120.297303,95.7740516 C118.46986,95.6473356 116.670546,95.4296589 114.889134,94.6982572 C112.335062,93.6495919 111.195062,91.6242312 110.385592,89.2936211 C109.431926,86.5478968 108.650929,83.742202 107.778499,80.9677414 C107.432156,79.8662536 106.947145,78.9103571 105.887894,78.2233377 C104.604929,77.3912291 104.386055,76.0212233 105.304202,74.7455801 C105.823988,74.0234652 105.492082,73.7929421 105.083209,73.4872188 C103.875034,72.5838145 103.8504,71.41561 105.209932,70.6761414 C106.431111,70.0119158 107.18418,67.5375803 106.808161,66.6775533 C106.56239,66.1154701 106.020605,65.6463423 105.524651,65.2426539 C105.111509,64.9063855 104.562878,64.7422489 104.090098,64.4738603 C101.926281,63.2455415 101.631699,60.8495639 102.788857,58.3949219 C103.285871,57.3405724 103.920465,56.333935 104.610514,55.3924355 C105.690217,53.9193403 106.151311,52.2017411 106.085342,50.4983236 C105.962571,47.3286003 105.447282,44.1761303 105.231273,41.0071676 C105.132821,39.5624068 105.362895,38.0957565 105.434077,36.638551 C105.479822,35.7009989 105.382574,34.9150381 104.364543,34.3816625 C100.966369,32.6012865 98.5275061,29.8998944 97.3881361,26.2091899 C96.672879,23.8923019 96.9151842,21.5075129 97.3337401,19.115368 C97.8605153,16.104872 99.7531536,13.932176 101.52494,11.6815241 C103.798123,8.79396928 106.561874,6.44073735 109.645959,4.44024486 C112.051022,2.88019383 114.69077,1.99995672 117.472281,1.51946798 C120.514258,0.99399399 123.562078,0.463654256 126.628575,0.133680104 C128.522989,-0.0701808667 130.465383,0.212224425 132.371714,0.0744273325 C138.474115,-0.366681542 144.21883,1.22451733 149.960422,2.95709476 C153.043876,3.88754174 156.057953,4.97936199 158.632678,6.93877383 C161.247993,8.9290607 163.897251,10.9291656 166.213344,13.2447401 C168.649171,15.6800404 170.494746,18.6293815 172.172006,21.6750299 C174.870504,26.5751346 176.458535,31.8651839 177.660637,37.2619829 C178.398323,40.5736804 178.740197,43.9848074 179.092555,47.3687767 C179.444311,50.7472916 179.582608,54.1479688 179.823996,57.5382396 C179.970543,59.5962982 180.135077,61.6530795 180.291506,63.8280219 M157.647102,80.0550214 C154.726149,78.1112051 152.180211,75.8137381 150.190811,72.8619782 C148.122581,69.7932487 147.152587,66.2815299 145.797637,62.9211154 C143.923732,58.2735887 143.165565,53.332683 142.054697,48.4868002 C141.311053,45.2427237 140.259508,42.1076648 138.735698,39.1651345 C136.807053,35.4408637 134.898488,31.7081597 132.084981,28.5044535 C130.392626,26.5773309 128.631667,24.9026927 126.107729,24.2319935 C125.115506,23.9683057 124.102259,23.7845474 123.09961,23.559615 C120.206328,22.9105254 117.32542,22.9166976 114.430333,23.6027339 C112.013984,24.1753173 110.043547,25.3913488 108.433058,27.2856013 C107.569307,28.3015399 107.317291,29.5015168 107.100881,30.7310697 C107.067911,30.9183735 107.315143,31.1746117 107.478991,31.3573367 C107.504942,31.3862885 107.832523,31.2327161 107.927108,31.0977108 C110.544227,27.3619712 114.277915,27.9779389 117.48265,29.9170973 C119.10517,30.8988952 120.724538,31.8950256 122.40492,32.7696432 C124.781195,34.0064592 127.279753,35.0186301 129.602921,36.3435933 C132.302365,37.883147 134.312189,40.0838833 135.019683,43.2604247 C135.345975,44.7255104 135.726662,46.178625 136.093715,47.6343666 C136.679527,49.9576705 138.01242,51.7713258 139.711936,53.4402367 C141.189886,54.8915713 142.04619,56.7079826 142.076839,58.9206184 C142.111843,61.4439436 141.277739,63.7684103 140.537561,66.0630496 C139.780397,68.4103245 139.694406,70.6428977 140.615417,72.8093858 C141.933129,75.9090047 143.513884,78.8959889 144.972356,81.9358816 C145.959966,83.9943564 146.78562,86.1465481 147.937078,88.1073879 C150.932966,93.2091144 153.73215,98.4333798 157.792731,102.853082 C159.893931,105.140114 162.105671,107.245798 164.659543,108.966355 C169.530939,112.248296 174.76661,114.904854 180.057823,117.406577 C184.940362,119.715039 190.049738,121.500317 195.459826,122.131557 C199.033305,122.548509 202.62841,122.779147 206.214033,123.091272 C207.158935,123.17352 208.11243,123.198969 209.046303,123.348608 C209.493245,123.420234 209.923116,123.689082 210.321534,123.932883 C210.493059,124.037838 210.565214,124.305954 210.682543,124.499947 C210.480713,124.57931 210.275187,124.734906 210.077625,124.725346 C209.013762,124.67383 207.952907,124.562243 206.889131,124.506492 C203.708686,124.339743 200.525949,124.212697 197.346879,124.02337 C195.570652,123.917596 193.73728,123.959911 192.038823,123.515974 C187.377278,122.297517 182.750163,120.902593 178.425851,118.721852 C176.249029,117.624067 174.230583,116.210454 172.0525,115.115541 C166.353216,112.250579 160.89151,109.067693 156.875615,103.945239 C154.92646,101.458976 153.123852,98.8547521 151.315286,96.2616096 C150.565483,95.1865474 149.984627,93.9940847 149.298387,92.8725589 C149.195982,92.7052217 148.936232,92.6346149 148.749269,92.5192384 C148.770752,92.7039583 148.741391,92.9152188 148.82151,93.0693219 C149.777268,94.9078094 150.618562,96.8236788 151.747619,98.5499334 C153.455586,101.16132 155.327944,103.668726 157.210041,106.159985 C158.038703,107.256851 158.951894,108.345879 160.020197,109.193505 C162.676187,111.300754 165.45787,113.247987 168.160837,115.296916 C170.016065,116.703223 171.85319,118.13673 173.645859,119.621854 C176.248656,121.778151 178.850279,123.940375 181.361183,126.201829 C182.736127,127.440181 183.91706,128.893884 185.19699,130.239473 C187.496182,132.656551 189.230386,135.472552 190.840531,138.363308 C192.787967,141.859582 194.509912,145.489993 196.593123,148.900589 C200.098284,154.639154 204.463644,159.676317 209.555232,164.092775 C212.57965,166.716118 215.457006,169.509698 218.407663,172.218848 C218.62015,172.413975 218.891758,172.544365 219.135868,172.70487 C219.070071,172.409525 219.085854,172.057224 218.926103,171.827533 C216.935156,168.964595 214.881706,166.144805 212.918172,163.26335 C210.449118,159.640059 208.260723,155.874979 206.497186,151.823928 C205.511122,149.558843 203.766605,147.622778 202.343711,145.55239 C201.564948,144.419194 200.735685,143.320921 199.953715,142.189865 C199.863541,142.059445 199.931229,141.819391 199.925729,141.63015 C200.091639,141.666609 200.316356,141.646097 200.414665,141.748024 C201.975655,143.366237 203.571764,144.954766 205.057162,146.64093 C207.369387,149.265723 209.477434,152.082283 211.906329,154.58959 C214.417033,157.181412 217.207137,159.5014 219.876619,161.938516 C219.95797,162.012783 220.049174,162.093452 220.150175,162.125346 C220.376096,162.196627 220.611125,162.239 220.842431,162.293143 C220.779126,162.057452 220.745898,161.807379 220.642778,161.590721 C220.563632,161.424532 220.376726,161.313663 220.271285,161.155684 C219.022321,159.284628 217.532225,157.525819 216.587811,155.510477 C214.731293,151.548822 213.181961,147.442752 211.498572,143.399337 C211.122955,142.497038 210.689045,141.617863 210.346856,140.70365 C210.252357,140.451036 210.391828,140.110462 210.42391,139.810236 C210.668049,139.962473 210.991991,140.058788 211.143464,140.275933 C212.22099,141.820554 213.301295,143.36582 214.305175,144.958699 C215.160505,146.315829 215.875332,147.761551 216.721811,149.124725 C219.035984,152.851594 222.209612,155.848855 225.182612,159.014028 C225.349811,159.192074 225.618039,159.274781 225.839262,159.40187 C225.813597,159.078822 225.901192,158.680186 225.744592,158.444553 C224.371997,156.379403 223.560207,154.075836 223.02693,151.695892 C222.507717,149.378788 222.327456,146.985165 221.80366,144.669382 C220.581249,139.265133 219.843792,133.710327 217.134466,128.739996 C215.880718,126.440031 214.74384,124.069 213.370071,121.84425 C212.408813,120.2875 211.151714,118.911265 209.99699,117.478505 C209.138596,116.41349 208.260379,115.361566 207.339224,114.351225 C206.526833,113.460166 205.591155,112.679946 204.799875,111.772035 C202.450068,109.07586 200.223633,106.267682 197.80041,103.640966 C195.224482,100.848778 191.872197,98.8398529 189.861514,95.4480175 C187.633332,91.6893402 185.137179,88.0906513 182.892699,84.3411175 C180.480188,80.3108506 179.441561,75.7957096 178.920286,71.1903402 C178.570764,68.1026637 178.567613,64.975442 178.41508,61.8656175 C178.254899,58.5994073 178.124366,55.3315464 177.936027,52.0670012 C177.828839,50.2086768 177.709705,48.3448834 177.45789,46.5025058 C177.054803,43.5528562 176.59222,40.6088187 176.055562,37.6806569 C175.097542,32.4534488 173.407707,27.4545178 170.871109,22.7899602 C168.526715,18.4788884 165.622863,14.6258271 161.656981,11.5791522 C157.661453,8.50971223 153.469937,5.96441847 148.602006,4.51979408 C146.543916,3.90902229 144.422321,3.61961234 142.40293,3.03840214 C139.73279,2.26988862 137.050905,2.07858006 134.365554,2.02979841 C130.992989,1.96852902 127.604441,2.18752602 124.239868,2.48162251 C121.727674,2.70120815 119.221868,3.13173114 116.749634,3.64456641 C111.818341,4.66748824 107.931519,7.19585888 105.918429,11.9965344 C104.910911,14.3991865 104.024187,16.8787611 103.386098,19.4006224 C103.03818,20.7757597 103.315976,22.3120405 103.334166,23.775361 C103.336457,23.9573967 103.477675,24.1377028 103.554529,24.3188131 C103.704656,24.1305547 103.936506,23.9639206 103.99262,23.7507943 C104.840159,20.5321887 106.52899,17.9241611 109.107726,15.760623 C112.444169,12.9613372 116.397419,11.5894728 120.505636,11.0119732 C124.42136,10.4615237 128.419668,10.8130572 132.241295,12.2880686 C133.83199,12.9020198 135.586189,13.0815224 137.25093,13.5167676 C137.77825,13.6546294 138.256501,13.980929 138.75721,14.2209759 C138.285833,14.4512624 137.832875,14.7438087 137.336979,14.8910151 C136.97746,14.9977287 136.540801,14.9913127 136.173634,14.897424 C134.905764,14.573213 133.64706,14.2087967 132.396148,13.8229215 C129.38568,12.8942616 126.375814,11.9993191 123.160308,12.3179823 C122.170005,12.4161267 121.130118,12.2716838 120.185331,12.5176374 C118.081438,13.0653454 115.960044,13.6388187 113.962881,14.4807165 C111.621466,15.4677177 109.596862,16.9668438 107.986803,19.0231657 C106.495333,20.9280183 105.70285,23.1174006 105.249261,25.4084229 C104.985387,26.7411229 105.179369,28.1699149 105.223739,29.5536645 C105.230786,29.7734223 105.536167,29.9835702 105.703623,30.1981534 C105.770824,29.96819 105.907401,29.7341645 105.894225,29.5089234 C105.789471,27.7170932 106.68857,26.3976561 107.790415,25.1123312 C109.70743,22.8760762 112.426181,22.1892146 115.012507,21.2824442 C117.609374,20.3719708 120.31618,20.4158578 122.943411,21.093899 C125.215333,21.6802477 127.539933,22.2399985 129.510599,23.6403053 C132.379305,25.6787135 134.326053,28.548075 136.136539,31.4577778 C137.881227,34.2617215 139.427667,37.2096631 140.820341,40.2067668 C141.823506,42.3657044 142.554432,44.6753866 143.183612,46.9790404 C143.919035,49.6716696 144.301784,52.4611014 145.037895,55.1535153 C145.967299,58.5531448 147.081548,61.9028084 148.14796,65.2638689 C149.460515,69.4008568 151.256192,73.2669011 154.552992,76.2408233 C155.626307,77.2090065 156.735628,78.137645 157.842773,79.0672451 C158.244314,79.4043601 158.4065,79.7037534 157.647102,80.0550214 M105.905224,57.12558 C105.573032,57.615291 105.205034,58.0847203 104.914778,58.5982446 C103.678761,60.7852874 103.493917,62.4653222 106.000296,63.6382062 C107.03517,64.1224629 108.148416,64.9267107 108.05873,66.3600888 C107.999578,67.3046025 107.744784,68.2398293 107.541292,69.1712379 C107.398699,69.8237795 107.437599,69.8179375 108.098517,69.7599192 C109.645902,69.6241027 111.215887,69.5883904 112.43761,70.7737908 C112.67834,71.007357 112.626951,71.5432878 112.710279,71.9397705 C112.446633,71.9011585 112.182701,71.8645706 111.919457,71.8234037 C111.626193,71.7775142 111.331754,71.7365913 111.041011,71.6777548 C109.560884,71.37829 108.090984,70.7559345 106.567661,71.37229 C106.143405,71.5439766 105.81064,71.9428135 105.43591,72.2374269 C105.721927,72.5038347 105.97062,72.8401891 106.303528,73.0188232 C106.712144,73.2381217 107.199533,73.3047237 107.636364,73.4788648 C107.860022,73.5680312 108.047816,73.7476699 108.251795,73.8864289 C108.122894,74.0612447 108.009833,74.2510317 107.862055,74.4080486 C107.408295,74.8902671 106.890371,75.3228356 106.505244,75.8533548 C106.358698,76.0552565 106.416646,76.5159154 106.547008,76.7748449 C106.64861,76.9764738 107.061666,77.212509 107.242099,77.151835 C108.680777,76.6680376 110.110145,76.1490733 111.513046,75.5696073 C112.013869,75.3627535 112.424548,74.9441228 112.896497,74.6551649 C113.043244,74.5653096 113.25616,74.5840271 113.438798,74.5530371 C113.430606,74.7658046 113.497119,75.0221505 113.402763,75.1846507 C112.428701,76.8615136 110.95247,77.8523903 109.057941,78.1533767 C108.436495,78.2521027 107.977952,78.4454065 108.342885,79.0559772 C109.944894,81.736377 110.379377,84.8015323 111.338085,87.6947285 C111.858358,89.2649132 112.407504,91.0727695 113.539255,92.1373392 C115.501213,93.9827884 118.254194,94.1462359 120.870769,94.1388809 C122.214118,94.1347528 123.578892,93.9553149 124.894341,93.6709791 C126.887694,93.2401045 128.914819,92.822263 130.80064,92.0763925 C132.678985,91.3335078 134.422786,90.231489 136.185922,89.2176747 C138.781185,87.725417 141.32887,86.1500503 143.924563,84.6585964 C144.625612,84.2557838 144.513784,83.7999046 144.206169,83.2918205 C143.199738,81.6294406 142.117686,80.0113425 141.154624,78.3246616 C139.604376,75.6095399 138.46681,72.7023057 138.582105,69.5457449 C138.642373,67.8958386 139.322197,66.2694584 139.711822,64.6299873 C139.773723,64.3694071 139.780855,64.0957505 139.81331,63.8281654 C139.596871,64.044995 139.309049,64.22505 139.175823,64.4847693 C138.441001,65.9170564 137.490887,67.1562552 136.104628,68.0030191 C135.538152,68.3490622 134.921031,68.6118674 134.32697,68.9125523 C134.639884,68.2664988 134.843662,67.5307335 135.285592,66.9907118 C136.790496,65.1518081 138.36684,63.3884057 139.0943,61.0381739 C139.726803,58.9948134 139.790709,57.0145097 138.749819,55.099272 C138.12402,53.947761 137.244915,53.7153862 136.238027,54.5160167 C135.596587,55.0260816 135.131999,55.7568375 134.569762,56.3718292 C134.445702,56.5075164 134.244101,56.5720657 134.078191,56.6693708 C133.995265,56.5078465 133.843333,56.3458486 133.844479,56.1849274 C133.846542,55.8940031 133.843992,55.5182902 134.012279,55.3283024 C134.656125,54.6015083 135.366427,53.9337948 136.053412,53.2455263 C136.383857,52.9144829 136.865631,52.662113 136.415939,52.0594082 C134.969269,50.1207018 134.592047,47.7982303 134.033419,45.5208443 C133.646802,43.9447601 133.277601,42.2181897 132.362061,40.9491349 C130.467073,38.3225765 127.599228,36.8510602 124.66083,35.6138564 C121.959094,34.4763191 119.42513,33.0809142 116.997925,31.4124842 C115.754289,30.5576104 114.155029,30.0711287 112.649609,29.8189169 C111.97729,29.7062747 111.094605,30.51574 110.386051,31.0181115 C107.388531,33.1433463 107.026434,36.3138664 107.218639,39.6011192 C107.36593,42.1202388 107.839884,44.620311 107.983423,47.139445 C108.081445,48.8603742 108.060162,50.6395083 107.725163,52.3190698 C107.403626,53.9313259 106.609195,55.4488319 105.905224,57.12558 M134.298755,93.5775209 C134.409237,94.0018215 134.556098,94.4203518 134.62433,94.8513844 C135.072791,97.6849113 135.579601,100.512453 135.905491,103.360563 C136.042441,104.557074 135.720676,105.798885 135.71953,107.020199 C135.716866,109.889854 135.087858,112.647837 134.350229,115.390575 C134.183088,116.012113 134.324019,116.430571 134.974539,116.593846 C135.825801,116.807489 136.672681,117.052941 137.53563,117.202149 C138.967118,117.449639 140.403963,117.704865 141.849429,117.823285 C143.950916,117.995459 146.108174,118.36833 148.157356,118.071391 C150.651876,117.709961 153.132045,116.924646 155.480735,115.979084 C157.372743,115.217381 159.044273,113.905107 160.079033,112.036405 C160.270036,111.691452 160.229131,110.949931 159.981613,110.671251 C158.113379,108.567805 155.993531,106.667768 154.2882,104.4453 C152.136872,101.641572 150.119686,98.6962997 148.392013,95.6163456 C147.021222,93.172555 146.082308,90.466792 145.135172,87.811612 C144.724408,86.6601011 144.590551,86.4571371 143.548716,87.1164968 C140.794876,88.8594736 138.008639,90.5511355 135.25795,92.2990069 C134.872965,92.5436544 134.615307,92.9895862 134.298755,93.5775209 M147.322192,123.09186 C148.000182,122.935073 148.67316,122.750884 149.356908,122.625776 C155.320096,121.534666 160.135177,118.514079 164.000945,113.894413 C164.06531,113.817505 164.121654,113.617326 164.092236,113.595437 C163.590352,113.221963 163.114364,112.746146 162.545309,112.557522 C162.235947,112.454978 161.719083,112.787012 161.377553,113.03575 C161.090505,113.244814 160.94562,113.638699 160.696898,113.913576 C158.826058,115.98118 156.514893,117.28777 153.82536,117.999651 C151.218095,118.689742 148.668806,119.720135 145.913877,119.545807 C143.620786,119.400718 141.332451,119.136779 139.052651,118.842496 C137.703487,118.66834 136.344041,118.436181 135.045292,118.043746 C133.484702,117.572192 133.510511,117.486399 132.855436,119.011771 C132.249144,120.423446 132.843434,122.250178 134.192082,122.590106 C135.945737,123.032134 137.751181,123.46997 139.54299,123.508869 C142.053666,123.563385 144.572305,123.248619 147.322192,123.09186 M101.446741,18.0866973 C101.584263,17.6353181 101.693228,17.1727431 101.864494,16.7346124 C102.416849,15.3214804 102.997104,13.9193007 103.55155,12.5069652 C103.611102,12.3553023 103.572031,12.1647545 103.578677,11.9922424 C103.41311,12.066409 103.202486,12.0995161 103.090629,12.2226797 C102.789373,12.5543474 102.533863,12.92734 102.253804,13.2788163 C100.269703,15.7688477 98.9123758,18.5093831 98.6174504,21.7476749 C98.2306901,25.994585 100.286431,29.0425373 103.281345,31.6621841 C103.389879,31.7571351 103.648168,31.6801912 103.836679,31.6833561 C103.822213,31.5076217 103.851288,31.3133634 103.786007,31.1592603 C103.447684,30.3608331 103.073642,29.5776283 102.733229,28.780055 C101.298762,25.4192887 100.434782,21.985856 101.446741,18.0866973 Z" id="Shape"></path>
                    <path d="M100.508112,94.6358035 C100.922772,97.3639156 101.246056,99.9933734 101.779448,102.579296 C102.250853,104.864706 102.907589,107.116441 103.582114,109.352847 C103.861485,110.279189 104.268927,111.233391 104.866254,111.973893 C105.280169,112.487016 106.092303,112.855609 106.771525,112.945005 C109.759993,113.338215 112.785213,113.47795 115.758844,113.951068 C119.912433,114.611935 124.033197,115.481665 128.164616,116.279497 C128.696375,116.382184 129.250621,116.51401 129.713089,116.77637 C129.992918,116.935153 130.116033,117.371396 130.309556,117.68299 C130.045252,117.839734 129.773357,118.143462 129.517875,118.130142 C127.273337,118.013115 125.027797,117.881604 122.790534,117.669554 C121.004425,117.500265 119.227798,117.224283 117.450053,116.97375 C115.90241,116.755686 114.35938,116.504694 112.813686,116.272434 C111.229751,116.034419 109.595888,115.968161 108.074857,115.518052 C106.635405,115.092087 106.27242,115.731466 105.628488,116.82137 C104.127565,119.361876 102.537558,121.892565 100.654973,124.152196 C98.5124963,126.723735 96.052006,129.053068 93.0537984,130.668611 C89.6784838,132.487362 86.150407,133.583482 82.2522702,132.739962 C80.9889834,132.466607 79.7018645,132.302484 78.4408405,132.020215 C75.9661427,131.466242 74.256343,129.845948 72.8159177,127.865184 C72.1563744,126.958249 71.4799596,126.062912 70.788105,125.180507 C70.3708096,124.648309 69.9688105,124.609769 69.3264542,125.023031 C66.8349704,126.626 64.2256425,128.048943 61.7697067,129.702294 C59.6340327,131.140064 57.5638259,132.702225 55.6122081,134.381571 C52.7849374,136.814439 49.9801527,139.293224 47.3648096,141.94928 C43.1319024,146.248079 39.4191394,151.010925 36.2685277,156.149856 C34.093195,159.697991 32.5415427,163.587805 30.9914657,167.472423 C29.7332489,170.625625 28.9128515,173.872386 28.300529,177.156409 C27.8752274,179.437355 28.0768572,181.835773 27.9999322,184.181799 C27.9935157,184.377557 28.0115045,184.574607 27.9972395,184.769504 C27.7206896,188.55066 28.5274091,192.204094 29.4330099,195.818774 C30.353635,199.493395 31.5376764,203.101184 32.4929326,206.76791 C32.8382011,208.093261 33.7222182,208.380712 34.8097126,208.449696 C37.7542116,208.636469 40.7002144,208.828639 43.6486665,208.915393 C46.8142019,209.008522 49.8853676,208.366587 52.9466079,207.593832 C55.1385543,207.040548 57.4203162,206.837326 59.4659314,205.754756 C59.5960499,205.685915 59.835949,205.825435 60.0247744,205.868037 C59.9680724,206.084981 59.9814065,206.411503 59.842881,206.500469 C59.1392107,206.9523 58.4388772,207.471049 57.6592557,207.73117 C54.9742343,208.626852 52.2797316,209.51329 49.5430924,210.227108 C47.8594455,210.666279 46.0985723,210.840794 44.3610589,211.029777 C42.8773086,211.191143 41.3779184,211.249276 39.8845148,211.265525 C38.9402007,211.275774 37.9940677,211.126551 37.0489515,211.046456 C36.444678,210.995242 36.0999252,210.92353 36.4139996,211.837068 C37.9719968,216.36873 39.3270755,220.971702 40.9404285,225.482465 C41.8768941,228.100727 43.1471558,230.600828 44.2996307,233.139311 C46.4408043,237.855506 48.4862907,242.620993 50.8037869,247.249171 C52.2906596,250.218557 54.1900724,252.980788 55.9103418,255.832358 C56.6107179,256.993299 57.3582433,258.127428 58.0107973,259.31435 C58.1572287,259.580672 57.9958733,260.016915 57.9762089,260.374929 C57.5527404,260.303074 56.9611853,260.383054 56.7357233,260.132377 C55.886896,259.188581 55.0526778,258.200116 54.4020428,257.114561 C52.1681177,253.387261 49.7879613,249.722458 47.8902527,245.825151 C45.7867896,241.505324 44.1316153,236.964619 42.3202274,232.50418 C41.0807157,229.451972 39.8106833,226.406223 38.7365801,223.294418 C37.9050686,220.885407 37.3275638,218.385794 36.6919673,215.912305 C36.3045483,214.404632 36.1419326,212.826193 35.6167185,211.374614 C35.4605336,210.942907 34.4332788,210.670729 33.777617,210.606108 C31.5170521,210.383307 31.0727018,210.096029 30.306357,207.828891 C29.2721129,204.769277 28.1674604,201.729125 27.2702668,198.629119 C26.7777792,196.927467 26.5066001,195.129759 26.386092,193.358289 C26.1323433,189.628205 25.8428032,185.880982 25.9517388,182.152046 C26.0363838,179.254802 26.5824368,176.351128 27.1381861,173.492267 C27.9831319,169.145683 30.0484262,165.229831 31.7393491,161.181607 C33.7065494,156.471986 36.4983438,152.269673 39.7558287,148.417481 C43.1858118,144.361247 46.7331089,140.371458 50.547403,136.683201 C55.3694017,132.020517 60.7268265,127.978221 66.4817531,124.492354 C68.1810401,123.463066 69.8254153,122.337636 71.4453282,121.186111 C71.7813012,120.947276 72.0631647,120.407083 72.0871403,119.989471 C72.2222572,117.634474 72.4635884,115.260271 72.2910903,112.92056 C72.1408777,110.883415 71.4851441,108.884394 71.0626068,106.866454 C70.8219631,105.717197 69.8664631,105.447373 68.9575681,105.246949 C61.8614271,103.682176 55.6015953,100.328135 49.6824057,96.2464233 C48.3929378,95.3572437 47.2025661,94.3222288 45.9009385,93.4531015 C45.4421657,93.1467755 44.7903135,93.0257004 44.2213017,93.0096816 C42.3322724,92.9565005 40.4278897,93.1298237 38.553412,92.9560556 C35.873346,92.7076329 33.5060369,91.4950174 31.3966013,89.8821155 C30.1483387,88.9276832 29.1907765,87.5998062 29.4375789,85.9093933 C29.6936048,84.1557373 30.6127975,82.7466747 32.303348,81.9752542 C32.8073364,81.7452764 33.3182854,81.5306142 33.8260408,81.3089186 C33.1708514,80.8125471 32.5636134,79.9809555 31.852037,79.878727 C28.9976399,79.4687086 26.8881614,77.758028 24.6951261,76.1526474 C24.6015299,76.0840933 24.4920786,76.0031949 24.450243,75.9028325 C23.7848277,74.3061362 23.6556832,75.5689039 23.3798209,76.0991936 C21.8706626,79.0002413 20.3623209,81.9017193 18.8402727,84.7959632 C18.7191918,85.0262137 18.5319702,85.2650622 18.3130821,85.3908739 C17.8779984,85.6409757 17.3994177,85.8150166 16.9388115,86.0204923 C16.8404029,85.4345671 16.5148707,84.7726955 16.680537,84.2750753 C17.7335719,81.1123854 19.0214503,78.0241919 19.9819914,74.8358229 C20.795729,72.1346674 21.4371257,69.3564028 21.8573144,66.5672582 C22.4136222,62.8745658 22.6843859,59.1384527 23.0683817,55.4200238 C23.1660028,54.4746917 23.2415961,53.5264604 23.2964505,52.5777696 C23.3105724,52.333395 23.2076521,52.0822022 23.158498,51.8341527 C22.9729807,52.0306429 22.6746896,52.199502 22.6190186,52.4278147 C21.8768787,55.4707647 20.3828734,58.1913265 18.8312497,60.8460471 C17.3427157,63.3928411 15.6502459,65.8374355 13.8666433,68.1892606 C11.3592763,71.4954318 8.01925178,73.9300791 4.75643903,76.4276821 C3.91839661,77.0692142 3.15484466,77.8165776 2.28013708,78.3993018 C1.61124132,78.8449035 0.698622552,79.1674064 0.176358815,78.3096905 C-0.0873727009,77.8766198 -0.0509508778,76.9304409 0.256391884,76.5288194 C3.15712178,72.7382335 5.2124619,68.5291746 6.63832138,63.9982589 C7.63515551,60.830703 8.49889217,57.6318268 8.76779389,54.2960865 C8.9466943,52.0766184 9.30816118,49.8703128 9.44280528,47.6492801 C9.66670634,43.9558556 9.82788992,40.2566608 9.91718959,36.5575091 C10.0351625,31.6702151 10.436904,26.8266218 12.2997376,22.2561898 C13.617263,19.0236609 15.2978307,15.9827419 17.5357664,13.2524124 C19.7725417,10.5235109 22.4319691,8.30248545 25.4615285,6.59878079 C27.1413085,5.65414507 29.0695093,5.0472774 30.9602,4.61624502 C32.7171631,4.21568553 34.575786,4.09468244 36.3846961,4.12721546 C39.8563858,4.18967648 43.2658735,4.7784581 46.6193037,5.72674678 C49.9735931,6.67527981 53.3070723,7.66710388 56.4136713,9.28027129 C57.2257189,9.70194516 57.9482802,10.2937556 58.7301361,10.7779262 C59.1973592,11.0672571 59.6755388,11.4498023 60.1817185,10.7696512 C62.2932453,7.93243532 67.0602606,8.24425169 69.5342425,10.5772229 C70.9527546,11.9148465 72.1874824,13.469529 73.7022694,14.6780465 C75.7236943,16.2907833 77.2007274,18.3255601 78.6161458,20.4068506 C80.4406101,23.0896332 82.0249175,25.9381957 82.8317515,29.1093331 C83.1498218,30.3594265 83.1572408,31.7191404 83.1161643,33.0229389 C83.0674685,34.5687149 84.1057801,35.4046775 84.9933347,36.3594974 C85.0413432,36.4111425 85.4664012,36.2105185 85.625723,36.0417598 C86.4342756,35.1851781 87.3224318,34.6902563 88.5801903,34.6255705 C90.4831981,34.527706 91.8080422,35.4353086 92.476895,36.9603505 C93.4638179,39.2105217 94.2447573,41.5802605 94.8375012,43.9678699 C95.5493209,46.8349992 95.9949745,49.7702089 96.5083442,52.6843471 C96.742371,54.0129418 96.6857691,55.4155597 97.0723575,56.6897103 C97.7971532,59.0784965 98.7830451,61.3862985 99.5970976,63.7496497 C100.656778,66.8261016 101.371405,69.9897678 101.671572,73.2327247 C101.879103,75.4753884 102.119603,77.7264926 102.121838,79.9740656 C102.125361,83.4995066 101.340755,86.91893 100.520086,90.3400043 C100.204021,91.6575323 100.494162,93.1211538 100.508112,94.6358035 M52.1687477,44.1909865 C51.4780678,45.1183616 50.8498332,46.1014873 50.0846055,46.9623037 C48.0583826,49.2416417 46.0458805,51.5416782 43.8867751,53.6910993 C42.3033413,55.267442 40.5038409,56.6271846 38.7827841,58.061955 C38.4805829,58.3138655 38.0901992,58.4594856 37.7405194,58.654196 C37.7986967,58.2028672 37.7176323,57.6625728 37.9385685,57.3152235 C39.0486207,55.5699643 40.3622219,53.9452205 41.3692821,52.1460051 C42.8389105,49.5202793 44.1138271,46.7847176 45.4511744,44.0857438 C45.5479934,43.890359 45.4776564,43.6117931 45.4850324,43.3718969 C45.3238777,43.5307369 45.1238091,43.6652039 45.0073971,43.8520484 C43.3399486,46.5282999 41.6263393,49.1779966 40.0388379,51.9014151 C37.837811,55.6773887 35.1678853,59.0845826 32.219276,62.2863869 C32.0699799,62.4484852 31.7949912,62.4943171 31.5785236,62.5942775 C31.5205898,62.2989609 31.3363043,61.9539655 31.4287549,61.7177726 C31.692157,61.0448196 32.0743769,60.4192634 32.3990069,59.7696214 C34.1413037,56.2830793 36.044412,52.8319051 35.2557958,48.6990221 C35.1664389,48.2307699 34.8340319,47.8091107 34.6143275,47.3658485 C34.4602763,47.7012411 34.2853148,48.0287106 34.1553254,48.3732322 C32.685124,52.2698503 31.1900446,56.1574828 29.7682527,60.0718422 C28.8766735,62.5264698 28.0683068,65.0130924 27.2961901,67.5082123 C27.1577075,67.95568 27.2089099,68.6292498 27.4609686,69.0030679 C28.811249,71.0055053 30.2322675,72.9613933 31.6692124,74.9033865 C32.9391592,76.6196939 34.153263,78.3963737 35.5874007,79.9672618 C37.6661007,82.2441741 39.8255211,84.4672594 42.1262172,86.5149976 C44.5971913,88.714313 47.19234,90.7943904 49.875084,92.729006 C54.0545402,95.7429037 58.454732,98.3789356 63.2738952,100.313135 C67.1951769,101.886965 71.2016481,103.049443 75.3996658,103.285966 C77.7041,103.415797 80.0700913,103.215747 82.3520968,102.830116 C88.6663247,101.763092 93.2618733,98.1693977 96.2644349,92.5806585 C98.6824164,88.0799577 99.1910597,83.1147654 99.3205908,78.1032819 C99.3429621,77.237011 99.2166105,76.3603768 99.0929517,75.4980533 C98.7330028,72.9881057 98.4083442,70.4701345 97.9436421,67.9789476 C97.192837,63.9541781 95.9806236,60.0613351 94.1634352,56.38492 C92.4261938,52.870273 90.7942503,49.2854929 88.7971734,45.9216477 C85.1646872,39.8032074 80.3684256,34.5822793 75.4784388,29.4600987 C75.3375643,29.3125193 75.1498272,29.2098962 74.9839174,29.0863166 C74.8879004,29.32078 74.6666491,29.5866281 74.7160324,29.7846326 C75.0512895,31.1282989 75.357902,32.4905033 75.8496449,33.7793236 C76.1446848,34.552617 76.8514917,35.1630586 77.1847437,35.9290532 C77.3332089,36.2702736 77.1110982,37.142286 76.8941723,37.204754 C76.2582323,37.3878663 75.4708479,37.4799465 74.8663596,37.2625283 C71.6697302,36.1127398 68.5188465,34.8358692 65.3356231,33.6474545 C63.9106373,33.1154639 63.3095576,33.5454702 62.7047545,34.9293919 C61.8486657,36.8883946 60.9832391,38.8738228 59.8414486,40.6688466 C58.5205146,42.7454938 57.0086639,44.7300175 55.3645035,46.560352 C54.1666412,47.8938415 52.6384342,48.936464 51.2107416,50.0484157 C50.9705274,50.2355043 50.4925054,50.1159077 50.1243642,50.1380127 C50.1899318,49.7920267 50.1736903,49.3992903 50.3383397,49.1099163 C50.6671949,48.5319287 51.1109722,48.0210743 51.4797292,47.4641726 C53.5602337,44.322066 55.7381873,41.2357818 57.1941953,37.7275508 C57.3252017,37.4119234 57.2989917,37.0307564 57.3457541,36.6800051 C57.0969179,36.9196861 56.7929409,37.1230088 56.6079823,37.404804 C55.154495,39.6192053 53.7238091,41.8486205 52.1687477,44.1909865 M10.6344662,57.1255656 C10.4780378,57.8433312 10.3055967,58.5580249 10.1678446,59.279379 C9.4607082,62.9825642 8.28862609,66.5416941 6.71444459,69.9546725 C6.11996773,71.2435789 5.23222683,72.3949031 4.51109759,73.6282886 C4.36281851,73.8819074 4.36125734,74.2216923 4.29206613,74.5217601 C4.5638323,74.4106325 4.91573197,74.3732836 5.09533401,74.1773101 C7.83578282,71.1870819 11.2440818,68.9258154 13.7497588,65.6299357 C17.273639,60.9947391 19.7698922,55.8853476 21.9049934,50.5368495 C22.4684052,49.1254472 23.0743399,47.7264609 23.759649,46.3720292 C23.9183118,46.0584545 24.4825686,45.950987 24.8601912,45.7486691 C24.9678664,46.1350466 25.1596997,46.519099 25.1704843,46.9081752 C25.316429,52.1730621 25.0857963,57.4221886 24.225626,62.6217797 C23.817368,65.0896558 23.263366,67.5377525 22.6709515,69.9692416 C22.1799103,71.9846551 21.5303355,73.9610545 20.969516,75.959961 C20.924329,76.1210259 21.0229385,76.3226116 21.0547054,76.5053652 C21.188218,76.3862711 21.3760696,76.2928706 21.4462349,76.1438199 C21.8469735,75.2923335 22.243917,74.437474 22.597922,73.5657058 C24.4635771,68.9712167 26.3542964,64.3863302 28.1568619,59.7669371 C29.05248,57.4717237 29.8261722,55.1250371 30.5663359,52.7735996 C31.2663685,50.5496531 31.7950628,48.2712768 32.5047485,46.0507464 C32.9804075,44.5624505 35.3394381,43.8959281 36.0601237,45.0514151 C36.6981404,46.0744016 37.3309581,47.3432986 37.3026716,48.4871589 C37.253732,50.4667595 36.6851787,52.4325372 36.3512105,54.4069414 C36.2987335,54.7172291 36.3337516,55.0423733 36.3283092,55.360656 C36.5447625,55.144458 36.8123037,54.959982 36.9688896,54.706636 C37.6801079,53.5560006 38.4086417,52.4117958 39.0412304,51.2175533 C40.4009065,48.650664 41.7161974,46.0598897 43.0274354,43.4676085 C43.5996696,42.3363077 44.1016102,41.1694526 44.6649644,40.0334293 C45.0754139,39.2057561 45.7972163,39.2160048 46.5239886,39.4890586 C47.1575225,39.7270746 47.7323492,40.1309352 47.4315228,40.9280489 C46.4088943,43.6376589 45.4168152,46.3632732 44.2611178,49.0162715 C43.6091941,50.5128211 42.6495979,51.8735973 41.8537205,53.309516 C41.7238599,53.5437854 41.7245045,53.8507144 41.6648233,54.1240554 C41.8583752,53.9713012 42.0849687,53.846394 42.2402084,53.661358 C43.3835887,52.2982854 44.5062016,50.9177294 45.6480491,49.5533506 C46.9401095,48.0095052 48.3543391,46.5550841 49.5222821,44.9229481 C51.97458,41.4960174 54.2879512,37.9694855 56.6946039,34.5091679 C56.9843159,34.0926112 57.4542171,33.7000758 57.922758,33.5437908 C58.2727527,33.4270507 58.7696944,33.6729756 59.1698461,33.8350955 C59.291987,33.884559 59.4116069,34.2270425 59.36029,34.3756769 C58.8047125,35.98522 58.3635706,37.6586954 57.5989015,39.1657519 C56.4929884,41.3454022 55.1402875,43.3988535 53.9109303,45.5166674 C53.791969,45.7216264 53.8001041,46.0006657 53.7492455,46.2453133 C53.9704539,46.1435155 54.2392554,46.0900186 54.4019999,45.9289108 C54.6636404,45.669895 54.844789,45.3313588 55.0780283,45.0410087 C57.8305077,41.6148245 60.105094,37.936572 61.5983116,33.7541325 C62.3472118,31.6564426 62.341626,31.4616248 64.5241486,31.6413567 C65.9059381,31.7551543 67.2972379,32.0715998 68.6205638,32.4964172 C70.129192,32.9807026 71.5584171,33.7091331 73.0429838,34.2768145 C73.3374509,34.389435 73.7261017,34.2547168 74.0713559,34.2340615 C74.0448596,33.9352998 74.0293339,33.635067 73.9894608,33.338114 C73.9199401,32.8207644 73.8163897,32.3074842 73.7607903,31.7888643 C73.599607,30.2851019 73.4323793,28.78111 73.3279696,27.2730058 C73.3118426,27.0402721 73.5699883,26.7235608 73.7879455,26.5665796 C73.8983993,26.4870307 74.2417915,26.6262129 74.4101933,26.7567902 C74.7169776,26.9946984 74.9262269,27.4559387 75.2554686,27.5524973 C78.0930945,28.3847133 79.9189049,30.4748315 81.7070478,32.6292479 C81.8416776,32.7914683 82.0510701,32.8913711 82.2257166,33.0202403 C82.2482313,32.7754205 82.3355401,32.5156871 82.2833496,32.2880778 C81.713235,29.8015773 80.7220726,27.5140074 79.1618266,25.4709554 C77.1911602,22.8904874 75.4076864,20.1528731 73.2890414,17.7041665 C71.8596159,16.0520569 70.0389039,14.7198592 68.3020065,13.3617314 C67.0254572,12.3635557 65.7056261,11.3545501 63.8432076,11.8361942 C62.0244438,12.306542 61.6068334,13.1555379 62.6092817,14.6771853 C62.7296466,14.8599244 62.9058112,15.0477378 62.9244589,15.2456778 C62.9503538,15.5201739 62.8516155,15.8064692 62.8062138,16.0877191 C62.5456047,15.9665149 62.1320618,15.9111879 62.0475026,15.7141237 C60.9423919,13.1380765 58.6238933,11.968817 56.3062253,10.9549884 C53.8259701,9.87002912 51.2293464,9.02955216 48.6399981,8.22259876 C43.6774542,6.67603331 38.6034828,5.61096855 33.3828506,6.03060417 C31.3347431,6.19523578 29.2383697,6.7444294 27.336751,7.53560075 C23.947429,8.94571125 21.2380312,11.3449258 18.7925221,14.0984729 C16.3221924,16.8799885 14.7119615,20.1419858 13.5122373,23.5532705 C12.2434509,27.1608803 11.7815987,30.9868416 11.8054311,34.8414315 C11.8184502,36.9452502 11.8641097,39.0510787 11.7946749,41.1526871 C11.6880024,44.3812901 11.5433467,47.6103812 11.3207921,50.8327545 C11.1808917,52.8581295 10.8691233,54.8715907 10.6344662,57.1255656 M101.681398,109.569347 C100.223843,105.011417 99.2413023,100.358034 98.8545709,95.5816953 C98.8291343,95.2677904 98.6466964,94.9666746 98.537274,94.6596022 C98.3338108,94.8725994 98.056502,95.0509464 97.9383142,95.3039622 C96.7513081,97.8450861 94.7858262,99.6976549 92.6711917,101.442756 C88.7978324,104.639249 84.2191556,105.986605 79.3531444,106.340471 C77.1353031,106.501751 74.8756978,106.074479 72.6337377,105.935232 C72.4337979,105.922816 72.1914641,106.025518 72.0324004,106.153899 C71.9476695,106.222267 71.9318004,106.499397 71.9991439,106.615994 C73.8981414,109.903907 74.3072732,113.535796 74.4592904,117.227785 C74.4769354,117.656622 74.3614403,118.122032 74.4900833,118.509716 C74.9844329,119.999749 74.7976985,121.2711 73.512785,122.279288 C73.128345,122.580963 72.6917431,122.840711 72.3847298,123.208328 C72.1587233,123.478927 71.8869142,124.040838 72.0081955,124.221166 C73.0254247,125.733663 73.8590703,127.581494 75.2764652,128.557501 C76.9488263,129.709098 78.7709415,130.842537 80.9954858,131.141514 C84.2538156,131.579451 87.2905504,131.184016 90.2228182,129.755217 C93.1211419,128.342939 95.5879339,126.403013 97.841667,124.073479 C99.9567885,121.887226 101.683804,119.452435 103.238693,116.886536 C103.822815,115.92253 104.395164,114.817569 103.590621,113.518801 C102.853336,112.328621 102.385369,110.970859 101.681398,109.569347 M42.7824807,90.5202602 C40.5302656,88.3414854 38.286143,86.1541985 36.0197059,83.9903806 C35.5051905,83.4991623 34.9696501,82.8320515 34.3455403,82.6948715 C32.9975083,82.3985931 31.8285915,83.4424071 31.1647944,85.0025442 C30.7881888,85.887719 31.289413,87.3888472 32.2714522,87.9504284 C33.4279658,88.6117689 34.6191828,89.3173767 35.8877542,89.6529273 C37.9842999,90.2075466 40.1541613,90.4852797 42.2964522,90.8605187 C42.4031393,90.8792219 42.5415217,90.7162336 42.7824807,90.5202602 M89.9485457,43.2503052 C90.6364756,44.488485 91.3120598,45.7338703 92.0226194,46.9588587 C92.1672749,47.2081856 92.4437244,47.3807334 92.6594188,47.5886638 C92.6944226,47.2906199 92.8108056,46.9752221 92.7517117,46.6972592 C92.2260537,44.2240004 91.7558516,41.7334737 91.086426,39.2985395 C90.7354429,38.0218053 90.4850026,36.5930923 88.8744282,36.0159086 C87.6627878,35.5816896 86.9488768,36.2184991 86.2312137,36.891208 C85.5260968,37.5521322 86.2712589,38.0049539 86.6093518,38.4922823 C87.6827245,40.0394867 88.7571855,41.585959 89.9485457,43.2503052 M28.4684013,77.3505215 C29.24914,77.8194194 30.0193806,78.3075805 30.8172917,78.745015 C31.0447302,78.8696783 31.3526031,78.8469704 31.6235958,78.891855 C31.5174961,78.6202654 31.4584308,78.3163365 31.2980207,78.0821099 C29.7129541,75.7676764 28.1203971,73.4582097 26.502733,71.1666276 C26.2893448,70.8643494 25.9571955,70.2758691 25.6396409,71.1817566 C25.3059879,72.133519 24.8574699,73.0443443 24.4911191,73.9855709 C24.4256803,74.1537266 24.4388281,74.4896217 24.5460739,74.5673335 C25.7999649,75.4759054 27.0788202,76.349841 28.4684013,77.3505215 Z" id="Shape"></path>
                    <path d="M75.3998092,193.879192 C75.1793597,192.963472 74.670516,192.116019 74.7962661,191.377053 C75.0915067,189.642301 76.6284357,189.646119 78.1815492,190.464835 C78.7386018,190.758515 79.1605949,191.30026 79.6790633,191.681183 C79.8969058,191.841228 80.2049504,191.877917 80.4720333,191.970672 C80.42159,191.703029 80.4638696,191.345072 80.3058942,191.182242 C79.1657797,190.006946 78.6509492,188.530823 78.5520391,186.983388 C78.5048041,186.244537 78.8832,185.314262 79.3820755,184.747744 C79.9525911,184.099867 81.3340656,184.441977 82.184497,185.286416 C85.3189099,188.398796 88.4234753,191.541376 91.5595784,194.652004 C91.9196991,195.009215 92.3825394,195.287393 92.8407967,195.515218 C93.8617496,196.022857 94.4448402,195.773702 94.8763435,194.716568 C95.6622383,192.791053 98.1646069,190.89904 99.9995264,191.087277 C102.084227,191.301149 103.084184,192.464761 102.019404,194.563814 C101.48859,195.610183 100.699459,196.522688 100.054581,197.513651 C98.4156486,200.032009 98.8514772,201.913946 101.254306,203.77596 C105.737596,207.250172 111.142843,208.603455 116.283069,210.577716 C118.551927,211.449111 120.869996,212.048586 123.326332,211.991515 C125.167926,211.948741 127.072137,212.22867 128.83682,211.846799 C131.04475,211.369016 132.613217,209.610896 133.971289,207.899512 C135.479058,205.99949 137.012464,204.01076 137.979708,201.815105 C139.363417,198.674018 140.367212,195.345095 141.300884,192.030642 C142.107546,189.166929 142.670242,186.225676 143.18871,183.291744 C143.561893,181.179743 143.65685,179.019715 143.927485,176.887705 C144.205109,174.700662 144.516763,172.516634 144.894271,170.34538 C144.941849,170.071795 145.480111,169.883903 145.79102,169.656279 C145.902219,169.97795 146.133209,170.310845 146.104393,170.619396 C145.961284,172.152677 145.766415,173.681795 145.558626,175.208129 C145.180345,177.987039 144.805042,180.766754 144.381273,183.538918 C144.027741,185.851528 143.752552,188.190894 143.179143,190.451285 C142.4471,193.337103 141.485929,196.167171 140.558529,198.999908 C139.297763,202.850737 137.144286,206.148598 134.470823,209.190471 C133.124639,210.722202 131.626237,211.91587 129.841589,212.771189 C129.099148,213.127108 128.227004,213.336732 127.40304,213.374167 C124.172095,213.52095 120.934446,213.439707 117.827446,212.436514 C115.282769,211.614841 112.806639,210.582252 110.28611,209.682551 C106.456061,208.315545 102.803552,206.60884 99.5722054,204.100931 C97.9608002,202.850307 97.3919458,200.389335 98.4608499,198.191469 C99.0505576,196.978882 99.8893878,195.887873 100.477778,194.67477 C100.758352,194.096394 101.551208,193.342529 100.595851,192.704614 C99.8402048,192.200133 99.0700933,192.446129 98.2924767,192.898851 C96.641284,193.860245 95.9817408,195.598958 94.92312,197.021485 C94.2527492,197.922334 93.378285,198.264243 92.6145326,197.567248 C90.410412,195.555782 88.288788,193.452795 86.1557063,191.364249 C84.5661571,189.807858 83.0177986,188.209181 81.4256713,186.655489 C81.2476447,186.481749 80.8176596,186.336488 80.6585387,186.433032 C80.4634399,186.551423 80.2828068,186.985714 80.3517258,187.201366 C80.7815961,188.546956 81.1481905,189.940201 81.7956743,191.181496 C82.5588252,192.644643 83.5108877,194.027812 84.523362,195.334962 C85.2524257,196.276232 86.2087563,197.042183 87.0760879,197.873359 C87.3185363,198.105748 87.6365205,198.26387 87.8571991,198.51202 C87.9610932,198.62886 87.9167799,198.87813 87.9396383,199.067371 C87.7678278,199.062577 87.5557713,199.122203 87.4301359,199.043458 C85.1295689,197.601152 82.8134762,196.180979 80.5587121,194.669143 C79.5579249,193.998128 78.7030824,193.111862 77.742312,192.375221 C77.5031289,192.191836 77.1100385,192.209979 76.7877,192.135483 C76.7943743,192.426063 76.6958367,192.778651 76.8242506,192.997491 C77.9176459,194.861054 79.0145071,196.724733 80.1838395,198.540814 C81.7402469,200.958093 83.7379541,202.922392 86.3162023,204.258422 C86.4732611,204.339809 86.4995281,204.674713 86.5866365,204.891686 C86.3701403,204.937044 86.1173797,205.077253 85.9437359,205.010536 C85.3374144,204.777745 84.7539801,204.482457 84.1698582,204.194605 C82.6099846,203.425954 81.0595638,202.637726 79.4901803,201.889286 C79.2963992,201.796905 79.0104681,201.898559 78.7672464,201.9103 C78.9059726,202.18265 78.9778133,202.539976 79.1954553,202.712165 C79.9802618,203.33297 80.7858641,203.937211 81.6350065,204.464601 C83.9959278,205.930993 86.3449616,207.424141 88.7759764,208.766171 C89.9024848,209.388067 91.3052139,209.518802 92.4077467,210.169865 C93.6910561,210.927692 94.8768304,211.917478 95.9317844,212.979378 C97.0424525,214.097315 97.8866392,215.476665 98.9574624,216.639846 C100.957232,218.812133 102.95491,220.997884 105.101283,223.020459 C108.786447,226.493064 113.133704,228.792842 118.102406,229.860914 C120.652382,230.40906 123.179557,231.231939 125.757004,231.44495 C129.959576,231.792257 134.26567,232.476219 138.363403,230.975062 C140.148022,230.321243 141.740723,229.070561 143.321163,227.95004 C144.55824,227.072961 145.728432,226.061185 146.773246,224.961247 C148.238219,223.41898 149.66521,221.816973 150.91724,220.100422 C152.80942,217.506188 154.683869,214.876989 156.294443,212.104337 C158.041567,209.096511 159.564117,205.947414 161.025223,202.785915 C162.466823,199.666502 163.690609,196.446555 165.044269,193.285487 C166.269917,190.423238 167.481214,187.552003 168.81637,184.740796 C169.596965,183.097335 170.540607,181.519069 171.54486,180.000458 C172.012111,179.293874 171.925146,178.838138 171.336069,178.454516 C168.435797,176.565747 165.480986,174.793445 162.183671,173.635202 C159.320179,172.629312 156.550899,171.347281 153.670822,170.39803 C151.454384,169.667504 149.14869,169.166267 146.850071,168.73944 C143.696523,168.153802 142.880437,167.175413 142.72607,163.902442 C142.47437,158.56458 143.577447,153.52347 145.731411,148.679482 C146.276118,147.454608 146.814121,146.219974 147.474495,145.057927 C147.660628,144.730429 148.284738,144.455782 148.682555,144.4866 C149.555158,144.554192 149.339119,145.150366 149.086789,145.71654 C148.261565,147.568406 147.389621,149.403333 146.659584,151.292878 C145.52537,154.228576 144.408887,157.164388 144.12287,160.362403 C143.939429,162.413227 143.606378,164.441344 144.414501,166.411815 C144.565315,166.779504 145.010654,167.1997 145.383636,167.273622 C147.673232,167.727319 150.002329,167.993383 152.277259,168.505213 C154.942444,169.104803 157.664947,169.642586 160.185362,170.651778 C164.641926,172.436223 169.028684,174.436465 172.883596,177.397669 C173.11748,177.577351 173.384305,177.714976 173.612402,177.901002 C175.103357,179.117206 175.369265,178.996921 176.558219,177.402463 C177.977247,175.499513 178.505913,173.275724 179.232055,171.09626 C180.546357,167.151471 181.546256,163.144643 182.184488,159.032746 C182.854658,154.715114 182.13986,150.608915 180.623211,146.580371 C180.086811,145.155505 179.547289,143.72283 179.170039,142.252276 C179.059671,141.822075 179.363677,141.016665 179.726805,140.79728 C180.240461,140.48695 180.772134,140.850935 181.004271,141.525051 C181.842299,143.958348 182.846552,146.342699 183.536745,148.815959 C184.121583,150.911725 184.536616,153.091964 184.693445,155.259055 C184.817763,156.976611 184.597972,158.764587 184.243896,160.4611 C183.677218,163.176366 183.025753,165.894617 182.125509,168.513309 C181.233543,171.107944 180.12233,173.650762 178.850909,176.081648 C178.063668,177.586767 176.84541,178.882032 175.71472,180.178733 C175.425838,180.51002 174.665781,180.712611 174.242642,180.582105 C173.413093,180.326176 173.090783,180.610727 172.768044,181.297904 C170.657219,185.792218 168.468967,190.250618 166.404518,194.765974 C164.47785,198.979899 162.768566,203.295133 160.790194,207.483508 C158.457402,212.42216 155.412159,216.942483 152.109975,221.279478 C150.712946,223.114305 149.337687,225.005916 147.691192,226.600718 C144.997363,229.210023 142.072342,231.585618 138.380848,232.695776 C135.426438,233.584252 132.412647,233.593352 129.37597,233.16443 C128.32325,233.015724 127.243604,233.056948 126.191686,232.904625 C124.358944,232.639222 122.52285,232.360957 120.715544,231.963068 C116.728666,231.085386 112.870545,229.805221 109.328118,227.736483 C107.801586,226.844992 106.289063,225.875819 104.947204,224.733107 C103.06018,223.126104 101.274472,221.385524 99.5624662,219.589969 C97.7165757,217.654005 96.067331,215.528712 94.2071469,213.60779 C93.4018309,212.776155 92.325651,212.172317 91.2977375,211.599884 C88.823498,210.222142 86.2202428,209.059277 83.8299319,207.553239 C81.7182191,206.222692 79.8236902,204.545815 77.8350633,203.019482 C77.7427417,202.948631 77.6666614,202.856048 77.5852246,202.771418 C76.9792468,202.141799 76.1559709,201.401025 76.7238798,200.573007 C76.9722575,200.210859 78.1384962,200.479822 78.8879551,200.464693 C79.1742297,200.458893 79.4606476,200.460042 79.7469796,200.458032 C79.5999752,200.236322 79.4543172,200.013665 79.3057087,199.793046 C78.0040382,197.860727 76.7018521,195.92881 75.3998092,193.879192 Z" id="Path"></path>
                    <path d="M55.6299536,185.001377 C55.2119562,183.641778 54.8406499,182.344044 54.5048343,181.037152 C54.4473732,180.813576 54.5415711,180.550843 54.5657041,180.306195 C54.7835755,180.438624 55.1290873,180.523168 55.1991951,180.711003 C55.7821998,182.273078 56.3420596,183.845201 56.8563459,185.43139 C58.0662104,189.163082 59.2506096,192.903099 60.4381456,196.641997 C61.1641301,198.927766 61.7932956,201.248443 62.6160419,203.498327 C63.7221267,206.523004 65.0030585,209.482946 66.154889,212.491461 C68.0322885,217.395233 69.7808729,222.350392 71.75005,227.216298 C72.9308114,230.134039 74.4623266,232.907438 75.7687236,235.776548 C76.5328772,237.45489 77.1511148,239.199402 77.861531,240.903035 C78.1636176,241.627418 78.0235739,242.273055 77.3332661,242.524736 C76.6946909,242.757556 76.173931,242.476076 75.8170759,241.72046 C74.1600109,238.211913 72.331651,234.783002 70.7310162,231.249852 C69.1337902,227.724139 67.651916,224.140148 66.2677201,220.524694 C64.2474124,215.247635 62.2960812,209.941753 60.4447195,204.603087 C59.6333738,202.263434 59.1044789,199.821581 58.5129237,197.410015 C57.5433164,193.45736 56.6261002,189.491757 55.6930719,185.530145 C55.6580538,185.381439 55.6886179,185.217173 55.6299536,185.001377 Z" id="Path"></path>
                    <path d="M110.539701,52.5984679 C109.799723,52.0392695 110.274652,51.4813345 110.622369,51.2758012 C111.579445,50.710072 112.593093,50.0648654 113.655237,49.8943125 C115.253838,49.6375934 116.913767,49.7123914 118.545081,49.7517642 C118.918693,49.7607928 119.366151,50.133075 119.623867,50.4610897 C119.837499,50.7329808 120.011916,51.3345516 119.864081,51.5242382 C119.631143,51.8231433 119.013363,52.1451152 118.731901,52.0303127 C116.531361,51.1327649 114.506556,51.4753775 112.627581,52.7914702 C111.845353,53.339372 111.233388,53.3429173 110.539701,52.5984679 Z" id="Path"></path>
                    <path d="M116.699448,44.7789356 C114.574244,44.4906667 112.56548,44.0519547 110.724831,45.4435057 C110.25735,45.7969267 109.639943,45.9848765 109.132417,45.3210528 C108.584502,44.6043782 109.264183,44.3245779 109.611213,44.031314 C111.38194,42.5349798 113.491676,42.262012 115.703559,42.5013057 C116.163736,42.5510847 116.660491,42.6759348 117.0439,42.9190609 C117.528339,43.2262768 117.913867,43.6901079 118.342047,44.0863898 C117.833605,44.3172288 117.325191,44.5480679 116.699448,44.7789356 Z" id="Path"></path>
                    <path d="M132.714791,70.3540978 C132.239232,69.0936983 132.415082,67.9620817 133.141654,66.9431289 C133.319967,66.6930555 133.685473,66.5510959 133.992744,66.430839 C134.136397,66.3746435 134.346276,66.4884984 134.526136,66.5252731 C134.448337,66.6864671 134.382741,66.8550391 134.290734,67.0076352 C133.819702,67.7887731 133.414666,68.3959707 133.982374,69.4988651 C134.544984,70.5918983 134.855836,69.9729881 135.347607,69.7117332 C135.756625,69.494473 136.157421,69.2617105 136.561855,69.0358091 C136.342035,69.5470367 136.232183,70.1562439 135.881859,70.5512053 C134.814273,71.7548352 133.47608,71.6575014 132.714791,70.3540978 Z" id="Path"></path>
                    <path d="M135.237354,58.4190221 C134.900264,58.5123511 134.680502,58.6056512 134.460712,58.6989515 C134.461886,58.4327732 134.372687,57.9853341 134.479789,57.9317079 C134.951996,57.6953572 135.501487,57.3917726 135.98455,57.4474655 C136.891726,57.5520624 137.119681,58.432974 137.070412,59.1365722 C137.016617,59.9037439 136.633753,60.6526575 136.355212,61.3947671 C136.302334,61.5356793 136.025655,61.7225092 135.924253,61.6861939 C135.744422,61.621788 135.475334,61.3782172 135.496503,61.2523192 C135.59842,60.6461408 135.739982,60.0375221 135.953299,59.4617307 C136.190706,58.8207871 136.27664,58.3528507 135.237354,58.4190221 Z" id="Path"></path>
                    <path d="M77.9223724,83.9941843 C75.3890387,85.003233 72.9141116,85.9524835 70.2026654,85.9344694 C70.0854517,85.9336943 69.951853,85.9714738 69.8539167,85.9279241 C69.4341866,85.741295 69.0249978,85.5309103 68.6119704,85.329181 C69.0412391,85.138949 69.4559278,84.8985789 69.9025841,84.7682888 C71.0563337,84.4318053 72.2848456,84.2833431 73.3739443,83.8077993 C75.6923284,82.7955782 78.0160116,81.7528265 80.2002528,80.4850921 C83.0947096,78.8051433 84.977838,76.2880907 85.4901478,72.8791167 C85.5676888,72.363339 85.5496141,71.8041265 85.7551108,71.345721 C85.9225674,70.972147 86.3581667,70.719289 86.6748622,70.4128913 C86.9056807,70.7202939 87.3562612,71.04528 87.3333741,71.3323718 C87.0987171,74.2781891 86.5478803,77.0659272 84.4366545,79.4154702 C82.6032244,81.4558736 80.3555927,82.750306 77.9223724,83.9941843 Z" id="Path"></path>
                    <path d="M40.9052244,68.5315 C40.5923531,69.4972861 40.3246828,70.3668727 39.9411167,71.1816562 C39.8134761,71.4527722 39.3886185,71.5833494 39.0996081,71.7781459 C39.0757329,71.4226433 38.9027048,70.9787211 39.0519291,70.72582 C40.0981898,68.952772 39.5145404,67.1016817 39.4194544,65.2685482 C39.3878737,64.6594701 39.3808702,64.0250577 39.5118191,63.4355296 C40.2264603,60.2186107 41.7143643,57.5155604 44.6181304,55.7256464 C45.3614451,55.2674563 46.1255271,55.2175049 46.4016757,55.920773 C46.5914466,56.4040681 46.2589824,57.4410065 45.8185852,57.7663082 C43.655498,59.3641244 42.3736211,61.539928 41.60265,64.0046178 C41.1632267,65.4093597 41.1244276,66.939971 40.9052244,68.5315 Z" id="Path"></path>
                    <path d="M76.1037803,49.4824137 C76.338466,49.9162166 76.6760145,50.4729029 76.5198153,50.7540954 C76.303147,51.1441332 75.7346939,51.5222143 75.2837983,51.5663811 C72.8925994,51.8006651 71.6904976,52.9799221 71.6520279,55.3378766 C71.6362733,56.3018542 71.2203242,56.9908258 70.2561452,56.9736299 C69.3445289,56.9573956 68.9370014,56.1728702 68.8424165,55.3522878 C68.5808049,53.0830118 70.065916,50.5624997 72.6554789,49.7368504 C73.7207165,49.3972233 74.8237076,48.8427188 76.1037803,49.4824137 Z" id="Path"></path>
                    <path d="M51.2887984,72.353076 C50.3586775,73.0757793 50.5424904,74.0326375 50.5234703,74.9382235 C50.5053381,75.801078 50.2290604,76.3349992 49.1894169,76.3214635 C48.3415923,76.3104254 48.0356244,75.898713 47.9508935,75.198172 C47.5689314,72.039817 49.1513196,69.8232341 51.9851929,68.8924139 C52.6497059,68.6741201 53.6322178,68.7905445 54.2295734,69.150798 C55.1777547,69.722642 54.834076,70.6642708 53.6791234,71.1313602 C52.8765287,71.4559588 52.122945,71.9023212 51.2887984,72.353076 Z" id="Path"></path>
                    <path d="M72.877246,70.8244456 C73.7463535,72.2171878 73.892069,73.5704713 73.0532099,74.9521037 C72.3686313,76.0796149 70.7382347,76.6193493 70.019712,75.9565879 C69.2885284,75.2821423 69.3797905,74.7577952 70.3738747,73.92128 C71.6317188,72.8627964 71.6304585,72.7396833 70.9487444,71.2717842 C69.9982287,69.2250794 68.2119478,67.9104222 66.7478906,66.3112855 C66.551331,66.0965658 66.4714984,65.7745512 66.3375845,65.5022294 C66.6875077,65.5207028 67.16066,65.3979914 67.368076,65.5797691 C69.1842332,67.1714416 70.9542726,68.8160369 72.730614,70.4529959 C72.7983013,70.5153779 72.7909396,70.6595769 72.877246,70.8244456 Z" id="Path"></path>
                    <path d="M72.5839247,41.4865009 C71.1188362,41.5655334 69.6950248,41.1698399 68.4637629,41.9934081 C67.8366169,42.4128857 67.3572771,43.0670492 66.7104806,43.4395611 C66.3087107,43.6709168 65.7184016,43.5734828 65.2127375,43.6236207 C65.1667914,43.1208332 64.8935785,42.4567797 65.1148587,42.1435782 C65.9993198,40.8915328 67.2847774,40.0287931 68.7985045,39.8741157 C71.3611701,39.6122437 73.8607317,40.072027 76.2603519,41.0448321 C76.7957206,41.2618771 77.3837955,41.3479717 77.9198801,41.563653 C78.188825,41.6718525 78.3954102,41.9358491 78.6301818,42.1293824 C78.3589168,42.2286538 78.0783137,42.4308424 77.8182489,42.4070294 C77.160138,42.3467861 76.5114223,42.1840707 75.8586393,42.0641583 C74.8063205,41.8708689 73.7537152,41.6789719 72.5839247,41.4865009 Z" id="Path"></path>
                    <path d="M81.676885,86.5810973 C82.8989233,85.3563671 83.7775123,85.158456 84.6175455,85.8946232 C84.7560997,86.0160426 84.8233574,86.2191787 84.9235564,86.3845497 C84.7642635,86.4696681 84.5986686,86.638154 84.4467087,86.6265703 C83.3430873,86.5423274 82.4665322,86.7882093 82.1182704,87.9994612 C82.0814046,88.1277561 81.7652824,88.3059165 81.6795775,88.2622233 C81.5053033,88.1733728 81.2739404,87.9345673 81.2908981,87.782775 C81.3342663,87.3944309 81.5008634,87.019924 81.676885,86.5810973 Z" id="Path"></path>
                </g>
            </g>
        </g>
    </g>
</svg>